<?xml version="1.0" standalone="no"?>
<!DOCTYPE svg PUBLIC "-//W3C//DTD SVG 20010904//EN"
 "http://www.w3.org/TR/2001/REC-SVG-20010904/DTD/svg10.dtd">
<svg version="1.0" xmlns="http://www.w3.org/2000/svg"
 width="1000.000000pt" height="500.000000pt" viewBox="0 0 1000.000000 500.000000"
 preserveAspectRatio="xMidYMid meet">

<g transform="translate(0.000000,500.000000) scale(0.100000,-0.100000)"
fill="#000000" stroke="none">
<path d="M3855 4821 l-80 -6 70 -7 c47 -5 93 -3 140 6 l70 14 -60 -1 c-33 0
-96 -3 -140 -6z"/>
<path d="M4163 4824 c4 -4 30 -9 59 -10 29 -2 62 -6 73 -8 11 -3 35 -5 53 -5
34 -1 44 -16 15 -24 -13 -3 -10 -5 7 -6 23 -2 24 -2 6 -13 -15 -8 -22 -7 -31
6 -9 11 -26 16 -56 14 l-44 -1 45 -7 c47 -7 47 -10 3 -19 -5 -1 -1 -6 8 -11
11 -6 34 -6 65 1 27 6 69 12 94 15 177 15 169 15 130 0 -19 -8 -51 -15 -70
-15 -46 -2 -80 -11 -80 -23 0 -5 5 -6 10 -3 6 3 10 1 10 -5 0 -6 -7 -13 -15
-16 -22 -9 -18 -34 5 -34 11 0 20 -5 20 -11 0 -5 -4 -7 -10 -4 -5 3 -19 0 -30
-8 -19 -14 -19 -14 7 -26 20 -9 23 -15 14 -21 -10 -6 -9 -10 5 -19 18 -10 18
-10 -3 -11 -13 0 -23 -4 -23 -10 0 -5 -21 -10 -47 -11 -41 0 -44 -2 -24 -10
19 -8 21 -12 11 -24 -10 -12 -9 -16 4 -21 9 -3 16 -10 16 -15 0 -12 -47 -11
-55 1 -10 16 -45 12 -45 -5 0 -8 9 -15 19 -15 38 0 30 -18 -12 -29 -52 -15
-159 -30 -169 -24 -4 2 -18 -5 -30 -17 -31 -28 -104 -60 -139 -60 -37 0 -79
-20 -79 -38 0 -7 -9 -16 -20 -19 -11 -3 -17 -9 -14 -14 3 -5 -1 -9 -9 -9 -10
0 -13 -10 -10 -35 2 -21 -1 -35 -7 -35 -6 0 -8 6 -4 13 6 10 4 10 -7 0 -18
-17 -58 -16 -65 1 -4 10 -15 13 -40 9 -22 -4 -34 -2 -34 6 0 6 -7 11 -15 11
-8 0 -15 5 -15 10 0 6 -4 10 -10 10 -12 0 -50 32 -50 42 0 5 9 8 20 8 11 0 20
5 20 10 0 6 -7 10 -16 10 -8 0 -12 5 -9 10 3 6 2 10 -4 10 -5 0 -11 -6 -14
-12 -3 -9 -10 -8 -26 6 -30 27 -26 35 13 30 41 -5 66 17 46 41 -6 8 -9 19 -5
25 21 34 -59 95 -103 79 -12 -5 -24 -4 -27 1 -4 6 1 10 9 10 25 0 19 14 -16
35 -32 19 -37 21 -58 24 -5 0 -19 11 -30 24 -19 20 -34 23 -153 28 -144 7
-200 16 -191 30 3 5 9 7 14 4 5 -3 11 -1 15 5 4 6 -8 10 -29 10 -20 0 -36 4
-36 9 0 6 -16 7 -37 4 -29 -5 -34 -3 -28 7 9 14 -56 -21 -86 -47 -9 -7 -39
-13 -67 -13 -29 0 -52 -4 -52 -10 0 -5 12 -10 26 -10 23 0 25 -2 13 -16 -8
-10 -26 -15 -53 -13 -94 5 -241 -1 -226 -11 12 -8 12 -10 -3 -16 -9 -3 -17
-10 -17 -15 0 -4 7 -6 15 -3 10 4 15 0 15 -11 0 -14 3 -15 15 -5 8 7 13 16 10
19 -2 4 1 8 8 9 7 0 32 3 57 7 25 3 39 2 33 -1 -7 -3 -13 -10 -13 -15 0 -12
37 -12 45 1 7 12 75 13 93 2 7 -5 10 -15 7 -23 -4 -11 6 -14 47 -15 29 0 47 1
39 4 -10 3 -10 6 -1 12 7 4 -5 10 -29 14 -23 3 -41 10 -41 15 0 14 83 1 101
-16 9 -8 27 -15 40 -15 13 -1 52 -7 87 -14 35 -7 84 -10 110 -8 59 6 65 6 129
0 63 -5 78 -13 63 -31 -8 -9 -4 -17 16 -29 15 -11 23 -23 20 -32 -3 -8 0 -23
6 -34 9 -14 9 -22 -1 -34 -8 -9 -19 -16 -26 -16 -7 0 -18 -7 -25 -15 -23 -27
-61 -18 -100 25 -29 32 -44 40 -71 40 -25 0 -40 7 -59 29 -18 21 -36 31 -66
34 -22 2 -49 9 -59 14 -10 6 -26 8 -36 6 -11 -3 -19 -1 -19 5 0 16 -60 32
-115 30 -56 -2 -98 9 -90 23 4 5 -12 9 -35 9 -33 0 -41 -3 -36 -15 4 -10 -1
-15 -14 -15 -11 0 -20 -5 -20 -11 0 -6 -9 -8 -22 -4 -17 4 -19 3 -8 -3 8 -5
32 -12 52 -16 24 -4 39 -13 43 -26 4 -11 18 -23 33 -26 15 -3 36 -8 47 -11
l20 -6 -20 -7 c-23 -9 -81 -2 -109 12 -13 7 -16 7 -12 -1 5 -7 -3 -11 -19 -11
-21 0 -25 4 -20 19 3 12 0 21 -10 25 -25 9 -46 -5 -52 -34 -3 -19 -10 -27 -22
-25 -9 2 -20 4 -24 4 -12 1 20 31 33 31 6 0 8 5 5 10 -3 6 -1 10 4 10 6 0 11
5 11 10 0 6 -9 10 -21 10 -11 0 -17 -4 -14 -10 3 -5 2 -10 -4 -10 -10 0 -25
18 -27 35 -5 39 -17 55 -38 49 -18 -6 -19 -5 -7 9 10 13 18 14 32 6 14 -7 19
-6 19 4 0 9 -9 14 -22 13 -13 -1 -33 1 -46 6 -20 7 -22 5 -16 -16 4 -17 0 -27
-11 -34 -10 -5 -15 -17 -13 -28 3 -14 11 -18 32 -16 23 3 27 0 22 -13 -3 -9
-2 -13 4 -10 6 3 10 2 10 -3 0 -13 -59 -34 -72 -26 -5 3 -5 11 2 19 12 15 7
19 -32 29 -28 6 -50 -11 -29 -24 9 -5 8 -10 -4 -20 -20 -17 -142 -7 -182 14
-27 15 -26 15 31 9 52 -5 58 -4 53 11 -5 12 0 16 16 17 20 1 20 2 2 6 -59 13
-82 26 -100 55 -18 31 -18 31 -27 8 -8 -22 -9 -22 -29 -4 -17 16 -19 16 -13 1
7 -18 -11 -24 -21 -7 -9 15 -25 12 -25 -5 0 -8 -5 -15 -11 -15 -5 0 -8 -4 -5
-8 4 -7 -191 -9 -204 -2 -3 1 11 6 30 10 l35 7 -42 2 c-24 0 -43 5 -43 10 0 5
9 7 20 4 11 -3 20 -1 20 5 0 9 -31 22 -54 22 -4 0 -6 -9 -3 -20 3 -11 2 -18
-1 -16 -4 2 -34 0 -67 -5 -49 -8 -68 -7 -95 6 -31 14 -32 16 -8 12 15 -2 25
-1 23 4 -3 4 0 11 6 14 5 4 8 14 4 22 -5 14 4 15 63 10 86 -7 119 8 36 17 -32
4 -74 7 -91 7 -23 0 -33 5 -33 16 0 11 -5 13 -17 8 -10 -4 -30 -10 -46 -13
-15 -2 -30 -8 -33 -13 -3 -5 -18 -9 -33 -9 -32 0 -57 -23 -45 -41 5 -9 2 -10
-9 -6 -10 3 -17 2 -17 -4 0 -5 -21 -10 -48 -9 -57 1 -110 -3 -271 -19 -68 -7
-137 -10 -153 -7 -25 5 -29 3 -24 -10 5 -14 -1 -15 -46 -10 -29 3 -66 8 -83
10 -80 14 -203 18 -209 7 -11 -17 -128 -14 -154 5 -28 19 -52 12 -52 -16 0
-11 -3 -20 -7 -21 -5 0 -27 -2 -51 -5 -24 -2 -52 1 -63 6 -35 19 -39 0 -9 -43
25 -36 26 -43 12 -46 -9 -2 -22 -7 -28 -12 -8 -6 -14 -4 -18 6 -6 16 -30 27
-103 50 l-43 13 0 -2037 0 -2037 58 -12 c32 -7 110 -12 173 -12 128 0 349 20
349 32 0 4 43 8 95 8 80 0 93 2 89 15 -4 11 1 15 17 15 25 -1 95 8 288 34 69
10 138 14 176 10 40 -4 65 -3 69 4 4 6 27 8 60 5 46 -5 57 -2 75 16 18 18 26
20 64 12 49 -11 135 -19 300 -26 114 -5 140 1 100 24 -13 7 -7 8 22 4 47 -7
101 -28 110 -43 7 -11 78 -14 88 -3 4 3 0 16 -8 29 -13 20 -12 23 9 37 35 23
130 29 182 11 25 -8 82 -17 127 -19 45 -3 111 -9 147 -15 111 -19 204 -13 222
13 4 7 25 6 64 -1 72 -15 125 -16 104 -2 -8 5 -27 10 -42 10 -29 0 -46 15 -26
23 7 3 1 6 -14 6 -32 1 -34 6 -13 27 28 29 87 46 144 42 50 -3 56 -1 56 17 1
31 14 46 38 40 26 -6 103 37 99 55 -2 8 4 11 17 7 11 -3 22 0 25 7 3 7 5 7 5
0 1 -7 19 -5 54 6 70 24 147 34 147 21 0 -6 -11 -11 -25 -11 -15 0 -25 -6 -25
-14 0 -9 -7 -12 -19 -9 -39 10 -103 -79 -66 -93 19 -8 20 -24 0 -24 -7 0 -18
-8 -23 -17 -10 -17 -2 -40 27 -76 13 -15 11 -21 -13 -46 -33 -34 -40 -30 109
-62 209 -45 245 -50 420 -54 165 -4 190 -2 295 20 63 14 127 28 142 31 15 3
35 15 44 25 12 13 31 19 60 19 29 0 46 5 52 16 6 10 42 23 98 36 102 22 100
21 138 37 41 16 251 32 496 35 117 2 217 8 233 15 15 6 42 8 60 5 128 -20 253
-26 311 -15 33 7 81 17 106 22 25 5 99 10 166 11 70 2 127 8 135 14 8 6 28 12
44 13 81 5 101 7 113 14 6 5 16 6 21 2 5 -3 25 4 45 16 29 17 48 20 108 17 40
-3 98 -14 128 -25 43 -16 88 -22 199 -26 82 -3 148 -10 154 -16 6 -6 22 -11
35 -11 14 0 42 -5 62 -11 33 -10 42 -9 64 7 24 18 38 42 16 29 -5 -3 -10 -1
-10 5 0 14 46 32 91 35 20 1 41 5 48 9 7 4 19 2 27 -5 11 -9 22 -9 52 4 41 18
172 20 184 3 14 -22 75 -6 113 29 35 34 75 46 75 24 0 -7 10 -5 25 5 25 17 61
21 67 9 14 -32 199 -93 228 -75 10 6 50 12 89 13 39 2 71 7 71 11 0 12 28 10
32 -3 2 -7 12 -7 32 1 21 8 32 8 40 0 8 -8 4 -12 -12 -16 -32 -9 -17 -24 23
-24 26 0 33 3 29 15 -7 18 17 20 34 3 9 -9 16 -8 30 5 15 14 44 18 146 20 70
2 130 -1 132 -5 3 -4 33 -8 67 -8 34 0 97 -7 140 -15 43 -8 113 -16 155 -17
46 -2 83 -8 91 -16 7 -7 22 -10 33 -6 11 3 32 1 46 -5 15 -5 48 -12 74 -15 25
-2 52 -7 58 -11 12 -7 94 -20 220 -35 137 -16 240 -41 240 -59 0 -18 -45 -40
-120 -57 -61 -15 -87 -26 -98 -42 -13 -20 -12 -22 12 -32 15 -5 101 -12 191
-14 l165 -5 0 1999 c0 1589 -3 1999 -12 2003 -10 4 -10 6 0 6 7 1 12 15 12 35
0 32 -2 34 -42 40 -29 5 -38 10 -29 15 11 7 10 13 -4 35 -25 38 -45 46 -120
46 -36 0 -76 5 -87 11 -14 8 -23 8 -31 0 -6 -6 -16 -11 -22 -11 -5 0 -4 4 3 9
7 4 -98 11 -235 15 -164 4 -261 11 -286 20 l-39 13 52 6 c51 6 68 12 59 21 -2
3 -57 8 -122 11 -99 6 -117 4 -117 -8 0 -8 10 -22 23 -31 12 -9 16 -14 10 -11
-8 4 -13 0 -13 -9 0 -9 -5 -16 -11 -16 -5 0 -7 4 -4 10 3 6 -1 7 -9 4 -9 -3
-16 -1 -16 5 0 6 -7 11 -16 11 -8 0 -13 4 -10 8 3 5 -14 8 -37 7 -54 -3 -77 3
-77 20 0 14 -168 32 -254 26 -27 -2 -67 -4 -90 -5 -22 -2 -60 -6 -84 -11 -36
-6 -41 -5 -36 8 6 17 -10 22 -111 33 -33 3 -82 17 -110 29 -27 13 -57 25 -65
28 -12 4 -11 6 3 6 9 1 17 6 17 11 0 10 -48 12 -245 14 -49 1 -104 7 -121 14
-31 13 -277 12 -683 -4 -140 -5 -146 -4 -175 18 -30 22 -37 23 -216 22 -102
-1 -234 -5 -295 -9 -139 -9 -490 -17 -615 -14 -109 3 -293 3 -530 0 -202 -2
-413 8 -421 20 -3 6 -64 11 -135 13 -71 2 -149 8 -174 14 -48 12 -328 16 -317
6z m3507 -84 c11 -7 1 -9 -35 -9 -44 1 -46 2 -20 9 17 4 32 8 35 9 3 0 12 -4
20 -9z m-1967 -27 c-7 -2 -21 -2 -30 0 -10 3 -4 5 12 5 17 0 24 -2 18 -5z
m-283 -13 c0 -5 -2 -10 -4 -10 -3 0 -8 5 -11 10 -3 6 -1 10 4 10 6 0 11 -4 11
-10z m74 4 c25 -10 19 -26 -6 -19 -31 10 -47 25 -26 25 9 0 23 -3 32 -6z
m2173 0 c-3 -3 -12 -4 -19 -1 -8 3 -5 6 6 6 11 1 17 -2 13 -5z m-2277 -14 c0
-5 -4 -10 -9 -10 -6 0 -13 5 -16 10 -3 6 1 10 9 10 9 0 16 -4 16 -10z m2457
-6 c-3 -3 -12 -4 -19 -1 -8 3 -5 6 6 6 11 1 17 -2 13 -5z m-964 -61 c-7 -2
-21 -2 -30 0 -10 3 -4 5 12 5 17 0 24 -2 18 -5z m-56 -9 c-3 -3 -12 -4 -19 -1
-8 3 -5 6 6 6 11 1 17 -2 13 -5z m-130 -20 c-31 -7 -71 -21 -87 -29 -28 -15
-30 -14 -30 4 0 14 11 21 48 29 26 5 65 10 87 10 38 0 37 0 -18 -14z m1353 6
c23 -7 22 -8 -10 -8 -19 0 -44 3 -55 8 -17 7 -15 9 10 8 17 0 41 -4 55 -8z
m-6494 -57 c-7 -7 -26 7 -26 19 0 6 6 6 15 -2 9 -7 13 -15 11 -17z m4994 -7
c0 -2 -7 -7 -16 -10 -8 -3 -12 -2 -9 4 6 10 25 14 25 6z m-4158 -84 c-13 -2
-31 0 -40 3 -15 6 -15 8 3 15 11 4 29 3 40 -4 19 -10 19 -11 -3 -14z m3297 -9
c-7 -20 -7 -28 3 -34 8 -5 1 -8 -19 -6 -17 1 -29 6 -26 11 3 5 0 6 -8 4 -8 -3
-13 -11 -11 -17 2 -9 -3 -9 -19 0 -17 9 -20 8 -14 -1 6 -10 1 -11 -21 -7 -25
4 -27 4 -11 -8 16 -11 14 -13 -19 -20 -21 -4 -33 -10 -26 -14 8 -4 5 -11 -8
-19 -17 -10 -18 -9 -13 6 8 22 -7 9 -22 -20 -6 -13 -18 -22 -25 -20 -7 2 -24
-7 -38 -20 -14 -13 -22 -18 -19 -12 4 7 -3 9 -21 6 -26 -5 -26 -5 -4 -15 12
-6 22 -14 22 -19 0 -5 -4 -6 -10 -3 -5 3 -10 2 -10 -4 0 -5 3 -11 8 -14 4 -2
2 -2 -5 -1 -7 2 -15 -2 -19 -7 -3 -6 -15 -9 -25 -6 -11 3 -17 1 -13 -4 3 -5
-3 -9 -13 -9 -10 0 -36 -16 -57 -36 -37 -33 -66 -41 -68 -19 0 6 -4 18 -10 28
-21 41 -18 56 16 67 18 6 59 15 90 20 31 5 63 16 71 24 20 20 19 27 -2 19 -16
-6 -17 -5 -3 12 34 44 49 56 69 58 11 1 21 5 21 10 0 4 14 13 30 18 17 6 30
15 30 20 0 5 9 9 20 9 11 0 20 3 20 8 0 4 10 8 23 8 45 3 93 12 117 22 14 6
26 11 27 11 1 1 -2 -11 -8 -26z m-2109 6 c11 -8 7 -9 -17 -4 -27 5 -32 4 -27
-9 7 -17 1 -19 -33 -10 -43 12 -22 30 37 33 14 0 32 -4 40 -10z m2165 -10 c-3
-4 -12 -6 -20 -3 -8 4 -13 10 -10 15 3 4 12 6 20 3 8 -4 13 -10 10 -15z m88
14 c-7 -2 -19 -2 -25 0 -7 3 -2 5 12 5 14 0 19 -2 13 -5z m2787 -12 c0 -4 -6
-13 -12 -19 -10 -10 -8 -14 11 -19 l24 -6 -28 -23 c-23 -18 -25 -22 -9 -21 10
1 22 7 26 12 4 6 8 -6 8 -25 1 -32 2 -33 14 -17 13 17 15 17 24 1 9 -16 10
-15 16 4 4 12 12 22 17 22 6 0 7 -10 3 -22 -3 -13 -3 -20 0 -17 4 4 23 3 42
-1 28 -7 33 -6 24 5 -6 7 -20 10 -32 7 -19 -5 -20 -4 -7 10 10 11 20 13 37 7
31 -12 45 -11 37 1 -3 6 3 10 14 10 17 0 19 4 11 30 -9 33 3 41 19 12 5 -9 29
-25 54 -36 26 -11 44 -23 41 -30 -3 -7 8 -18 23 -25 23 -10 26 -10 16 0 -7 7
-13 16 -13 19 0 8 81 -3 98 -14 8 -4 10 -2 6 7 -3 8 -25 20 -49 26 -24 6 -46
15 -49 20 -6 9 8 6 109 -22 39 -11 50 -19 50 -35 0 -12 4 -24 8 -28 4 -4 7 -2
7 4 0 7 5 12 10 12 6 0 9 -6 8 -12 -2 -8 6 -12 21 -10 16 3 22 0 18 -10 -2 -7
-11 -11 -18 -9 -48 13 -54 13 -39 2 13 -10 12 -13 -4 -26 -11 -8 -15 -15 -9
-15 7 0 14 4 17 9 3 4 30 8 60 9 60 0 76 6 76 28 0 10 7 13 25 8 20 -5 25 -2
25 12 0 9 3 14 6 11 4 -4 19 1 35 10 26 16 29 16 48 -1 21 -19 41 -14 41 9 0
7 6 16 13 18 7 4 6 6 -5 6 -9 1 -18 -3 -20 -9 -2 -6 -8 -6 -18 0 -13 8 -12 10
3 10 9 0 17 3 17 8 0 4 31 7 70 6 70 -1 79 3 59 23 -7 7 2 10 31 8 27 -2 37 1
29 6 -8 5 -24 9 -36 9 -13 0 -23 5 -23 11 0 5 -4 8 -8 5 -4 -2 -14 0 -22 5
-11 8 -1 9 34 5 27 -3 55 -11 62 -17 11 -9 14 -8 14 1 0 10 5 9 18 -2 9 -9 28
-19 41 -23 24 -7 23 -8 -15 -27 -21 -11 -49 -20 -62 -19 -13 0 -20 -3 -17 -9
3 -6 1 -10 -4 -10 -6 0 -11 -5 -11 -11 0 -5 4 -7 10 -4 5 3 18 1 27 -4 13 -8
0 -9 -49 -7 -52 4 -66 1 -62 -9 5 -13 -43 -28 -51 -15 -5 9 -75 -12 -75 -22 0
-4 -16 -10 -36 -14 -20 -4 -55 -17 -78 -30 -23 -13 -49 -24 -58 -24 -12 0 -16
-5 -12 -17 4 -13 3 -15 -4 -5 -10 15 -38 20 -139 26 -40 2 -73 0 -73 -5 0 -14
-36 -11 -49 5 -10 12 -16 12 -42 -1 -17 -8 -34 -25 -39 -38 -8 -20 -25 -33
-113 -88 -15 -9 -40 -18 -55 -18 -15 -1 -37 -6 -50 -12 -16 -8 -32 -7 -56 1
-19 7 -56 12 -83 11 -28 -1 -55 1 -61 5 -7 4 -12 3 -12 -2 0 -5 10 -14 23 -21
21 -11 21 -11 -5 -8 -16 3 -28 0 -28 -4 0 -5 -5 -9 -11 -9 -5 0 -8 4 -5 9 3 5
-3 11 -14 14 -10 3 -20 1 -22 -4 -2 -4 -19 -11 -38 -14 -50 -8 -74 -16 -81
-27 -11 -17 -52 -18 -66 0 -13 16 -14 15 -8 -5 6 -20 3 -23 -27 -24 l-33 -1
30 -8 30 -7 -25 -11 c-17 -7 -20 -11 -8 -11 10 -1 15 -6 12 -15 -7 -17 30 -28
45 -13 8 8 11 8 11 -1 0 -6 -9 -16 -20 -22 -11 -6 -20 -16 -20 -23 0 -8 3 -9
8 -1 4 6 17 13 29 16 20 5 21 3 13 -12 -7 -13 -7 -21 0 -25 10 -6 16 4 22 40
2 14 10 19 24 17 15 -2 23 4 27 18 3 11 0 20 -5 20 -6 0 -5 6 2 15 7 8 24 15
39 15 l26 0 -25 20 c-17 14 -20 20 -10 21 8 0 28 2 43 3 16 1 31 -2 33 -6 3
-4 0 -8 -5 -8 -6 0 -11 -4 -11 -10 0 -5 7 -10 16 -10 8 0 13 -4 9 -9 -3 -5 0
-11 7 -14 7 -2 5 -3 -4 -2 -10 2 -21 -1 -24 -6 -3 -5 -1 -9 4 -9 6 0 13 -8 17
-17 5 -15 4 -16 -6 -5 -17 16 -30 15 -23 -2 3 -7 -7 -31 -21 -52 -18 -26 -22
-40 -14 -43 7 -2 3 -11 -12 -22 -20 -15 -22 -20 -11 -31 8 -8 15 -9 20 -3 8
13 42 13 61 1 9 -6 12 -5 8 1 -4 6 2 13 13 16 11 3 20 2 20 -2 0 -12 -62 -61
-76 -61 -7 0 -16 -10 -19 -21 -5 -15 -9 -18 -15 -9 -6 9 -10 8 -18 -5 -7 -13
-22 -19 -51 -19 -22 -1 -41 2 -41 6 0 3 -9 4 -20 1 -11 -3 -20 -9 -20 -13 0
-4 -16 -18 -36 -32 -22 -16 -31 -28 -24 -33 6 -4 18 -1 26 6 10 8 7 -1 -6 -24
l-22 -37 22 0 c17 0 20 4 15 20 -5 14 -2 20 10 20 8 0 20 10 25 23 5 12 9 16
9 10 1 -7 6 -12 12 -10 6 1 14 -4 17 -12 3 -10 -1 -13 -16 -9 -12 4 -26 0 -33
-8 -7 -9 -8 -14 -1 -14 6 0 14 -9 17 -21 l7 -21 24 23 c18 17 27 19 37 11 11
-9 18 -7 32 8 20 22 35 26 35 8 0 -6 -3 -9 -6 -5 -3 3 -18 -8 -32 -25 -22 -26
-24 -32 -11 -42 8 -6 25 -26 37 -44 20 -28 21 -32 5 -24 -10 5 -24 7 -31 5 -7
-3 -18 0 -25 6 -10 7 -18 5 -30 -10 -14 -16 -21 -17 -37 -9 -22 12 -27 1 -8
-18 7 -7 8 -12 2 -12 -5 0 -15 10 -23 22 -12 19 -14 20 -23 5 -5 -10 -6 -22
-3 -27 4 -6 1 -9 -7 -8 -8 2 -13 -6 -12 -19 0 -12 -4 -21 -10 -20 -6 1 -10 -6
-8 -17 2 -10 -1 -15 -7 -12 -5 4 -12 2 -16 -4 -10 -17 24 -23 43 -9 15 13 16
12 4 -3 -17 -21 0 -33 27 -18 11 5 27 7 35 4 9 -3 16 -1 16 4 0 6 12 9 27 6
15 -3 25 -2 21 1 -3 4 -12 7 -20 9 -7 1 -19 5 -26 9 -7 5 -21 6 -31 2 -18 -5
-39 21 -26 33 3 3 5 0 5 -8 0 -10 3 -10 16 1 13 11 17 10 25 -4 6 -9 17 -17
25 -17 9 0 12 5 8 12 -4 7 -3 8 5 4 6 -4 18 -2 26 4 8 6 20 8 26 4 7 -4 9 -3
5 4 -3 6 2 16 12 21 39 21 36 -11 -4 -66 -13 -17 -24 -36 -24 -40 0 -11 -46
-55 -82 -77 -14 -10 -40 -18 -57 -18 -17 -1 -31 -5 -31 -9 0 -4 -15 -11 -32
-14 -18 -4 -41 -14 -50 -23 -16 -14 -18 -14 -18 0 0 23 -35 28 -62 10 -68 -46
-69 -73 -6 -131 61 -57 71 -139 18 -161 -53 -22 -99 -15 -134 19 -18 17 -37
31 -44 31 -7 0 -12 7 -12 15 0 16 26 10 48 -12 7 -7 20 -13 28 -13 8 0 12 -5
9 -10 -4 -6 3 -9 15 -7 21 3 40 23 40 42 0 6 -4 3 -10 -5 -11 -18 -23 -8 -14
13 3 10 12 13 22 9 14 -5 14 -4 2 9 -11 12 -25 14 -69 7 -60 -10 -82 0 -57 25
14 13 13 17 -7 31 -12 10 -15 14 -7 11 8 -4 6 1 -5 10 -11 9 -19 23 -17 32 3
11 -2 14 -16 11 -16 -4 -19 -1 -15 16 3 18 2 17 -7 -3 -8 -18 -7 -36 5 -72 9
-27 14 -53 10 -59 -3 -5 -2 -18 4 -27 6 -12 4 -32 -6 -62 -14 -41 -13 -46 1
-56 9 -7 16 -22 16 -34 0 -12 8 -24 18 -28 36 -13 72 -56 72 -88 0 -17 5 -36
12 -43 20 -20 0 -26 -27 -8 -24 16 -65 86 -65 112 0 6 -13 26 -30 44 -28 30
-29 33 -19 81 9 40 8 57 -5 89 -11 27 -13 47 -7 62 6 16 4 27 -6 37 -12 11
-17 10 -34 -8 -11 -12 -25 -21 -32 -21 -7 1 -3 8 9 18 11 10 20 26 19 37 -2
24 -24 66 -25 46 0 -7 -6 -11 -15 -7 -16 6 -19 -3 -9 -28 3 -9 10 -13 15 -10
5 3 9 -4 9 -16 0 -32 -23 -19 -35 21 -14 43 -36 89 -44 89 -3 0 -6 15 -5 32 1
22 6 34 17 36 19 4 22 18 7 27 -6 3 -13 -1 -16 -9 -3 -8 -14 -18 -24 -21 -11
-4 -17 -12 -13 -21 3 -7 0 -14 -6 -14 -7 0 -14 7 -17 15 -13 32 -114 -27 -114
-67 0 -7 -12 -21 -28 -31 -15 -9 -42 -28 -61 -42 -35 -26 -76 -36 -53 -13 16
16 15 29 -1 22 -8 -3 -18 9 -25 29 -15 42 -15 50 1 41 8 -5 7 -2 -2 10 -10 12
-11 20 -3 28 6 6 8 17 5 24 -3 10 0 12 10 8 8 -3 18 0 22 5 3 6 12 8 18 4 17
-11 47 -11 54 0 8 13 -16 34 -25 22 -11 -15 -45 -12 -59 5 -7 8 -13 11 -13 6
0 -5 -9 1 -19 13 -14 16 -21 18 -24 9 -3 -8 -6 -5 -6 6 -1 11 -4 17 -7 13 -4
-3 -13 0 -20 8 -11 11 -12 19 -2 40 10 22 14 24 23 12 14 -19 92 -29 92 -11 0
7 -4 11 -9 8 -4 -3 -8 -1 -8 4 0 5 -19 18 -42 28 -24 10 -61 33 -83 49 -122
91 -157 103 -163 57 -2 -13 -8 -20 -14 -16 -7 5 -8 2 -3 -5 4 -7 15 -11 24 -8
20 5 22 -26 3 -45 -9 -9 -12 -7 -12 10 0 16 -4 20 -17 15 -11 -4 -14 -3 -9 5
4 7 3 12 -1 12 -5 0 -9 -24 -8 -52 0 -51 -1 -53 -28 -56 -34 -4 -43 -23 -26
-54 7 -13 12 -29 11 -35 -3 -15 24 -18 33 -4 3 5 -2 16 -10 24 -21 22 -19 29
21 60 49 40 88 50 130 32 33 -13 38 -22 35 -55 -1 -11 1 -10 9 3 6 9 15 15 21
12 17 -11 9 -24 -26 -41 -25 -12 -33 -20 -26 -28 14 -16 -16 -33 -56 -31 -17
0 -30 -2 -27 -6 7 -12 -19 -24 -53 -25 -23 0 -30 3 -26 14 5 11 1 13 -14 8
-22 -7 -53 20 -57 51 -2 13 -10 17 -27 15 -13 -2 -35 -3 -49 -3 -94 2 -145 -1
-154 -9 -14 -11 -30 -1 -39 24 -5 12 -12 16 -25 11 -59 -25 -119 0 -151 64
-25 48 -61 81 -86 77 -31 -5 -74 14 -87 38 -12 21 -12 21 -18 -4 -8 -30 22
-62 75 -81 22 -8 35 -20 35 -31 0 -9 13 -32 29 -50 15 -18 31 -43 35 -55 9
-27 26 -30 27 -5 1 9 4 4 8 -13 6 -27 10 -30 41 -27 19 2 50 15 67 28 20 15
30 19 27 10 -7 -18 30 -56 55 -56 23 0 43 -23 36 -42 -3 -7 -17 -22 -30 -32
-14 -10 -25 -23 -25 -27 0 -12 -38 -49 -49 -49 -5 0 -11 -6 -14 -14 -3 -7 -21
-16 -41 -20 -19 -4 -39 -13 -43 -21 -9 -15 -61 -36 -163 -66 -82 -24 -80 -24
-80 10 0 17 -5 33 -10 36 -6 3 -7 17 -4 29 4 17 0 28 -13 37 -26 18 -55 64
-46 72 3 4 -3 7 -15 7 -23 0 -42 22 -24 28 7 2 12 8 12 13 0 6 -5 7 -11 3 -8
-4 -9 1 -4 17 4 13 4 21 0 17 -10 -9 -65 49 -65 69 0 8 -15 33 -34 53 -29 32
-36 36 -41 22 -6 -14 -10 -12 -31 13 -36 45 -29 15 16 -64 23 -40 39 -78 38
-85 -2 -8 7 -22 20 -32 22 -19 45 -104 35 -131 -3 -7 0 -13 6 -13 6 0 11 5 11
10 0 22 20 8 26 -17 4 -16 12 -35 19 -43 7 -8 16 -31 20 -50 4 -19 10 -39 14
-45 3 -5 6 -14 6 -20 0 -5 9 -10 20 -10 15 0 20 7 18 27 -1 20 2 25 13 21 9
-3 12 -13 9 -23 -9 -27 30 -51 63 -39 13 5 27 7 30 4 3 -2 10 -1 16 4 6 4 27
11 46 14 19 3 44 9 54 13 17 7 18 4 12 -32 -4 -21 -17 -55 -29 -74 -12 -19
-29 -47 -36 -62 -15 -28 -84 -100 -81 -83 2 6 2 18 1 28 -1 16 -6 15 -40 -12
-43 -34 -56 -39 -48 -16 5 10 -3 9 -31 -7 -20 -11 -43 -25 -51 -32 -10 -7 -13
-7 -8 0 3 6 0 11 -8 11 -19 0 -19 -6 2 -29 9 -10 12 -18 7 -18 -5 0 -10 -11
-10 -25 -1 -14 2 -25 8 -25 5 0 7 4 4 9 -3 5 1 14 8 20 12 10 14 9 11 -6 -2
-10 -4 -20 -5 -23 -1 -3 -2 -8 -1 -12 0 -4 -6 -5 -14 -2 -18 7 -21 -22 -2 -30
8 -3 7 -8 -6 -16 -9 -6 -15 -15 -12 -21 4 -5 1 -9 -4 -9 -6 0 -10 -4 -8 -9 1
-5 -7 -17 -18 -25 -15 -12 -16 -15 -3 -10 13 4 15 1 11 -15 -3 -11 -8 -20 -12
-19 -20 2 -32 -4 -42 -24 -11 -21 -11 -22 6 -8 9 8 34 15 53 17 24 1 31 -1 22
-7 -11 -7 -9 -13 12 -33 23 -21 25 -29 18 -66 -4 -22 -4 -41 1 -41 7 0 4 -39
-3 -45 -11 -8 -73 -35 -81 -35 -6 0 -19 -8 -29 -17 -15 -14 -18 -14 -13 -2 6
17 -21 46 -32 35 -3 -3 -14 0 -22 8 -12 11 -21 12 -31 5 -12 -9 -12 -10 3 -5
9 3 17 1 17 -3 0 -5 -5 -11 -12 -13 -6 -2 3 -10 20 -17 18 -8 32 -16 32 -20 0
-15 -60 -101 -70 -101 -6 0 -9 -4 -6 -9 3 -5 -1 -11 -9 -15 -8 -3 -15 -10 -15
-16 0 -6 4 -9 8 -6 5 3 7 -20 5 -50 -2 -30 1 -63 7 -74 7 -14 6 -23 -5 -34 -8
-8 -15 -20 -15 -26 0 -18 -67 -79 -94 -86 -13 -3 -39 -6 -57 -7 -19 -1 -33 -7
-32 -13 1 -8 -23 -11 -75 -10 -76 1 -77 1 -78 27 -1 15 -11 37 -23 50 -11 12
-21 27 -21 32 0 5 -13 24 -28 42 -20 22 -32 52 -41 96 -12 65 -18 80 -61 157
-22 40 -23 46 -12 99 6 31 20 66 30 77 29 34 45 92 32 117 -7 11 -9 23 -6 27
3 3 6 -1 6 -8 0 -9 5 -7 14 6 10 14 11 23 4 32 -8 9 -6 16 8 26 10 8 23 11 29
8 5 -4 2 -8 -7 -10 -24 -5 -23 -18 4 -36 33 -23 41 -20 35 14 -6 26 -3 30 14
30 14 0 19 5 16 14 -4 11 -1 13 11 10 9 -3 5 1 -9 10 -33 19 -54 63 -38 82 9
11 9 14 0 14 -7 0 -10 4 -7 9 9 13 59 -2 64 -20 3 -11 2 -11 -6 -1 -7 11 -10
11 -15 -2 -4 -10 -1 -16 8 -16 8 0 15 -6 15 -12 0 -9 3 -8 9 2 6 8 7 19 4 25
-4 5 4 1 18 -10 14 -12 19 -14 11 -4 -10 14 -10 18 2 22 7 3 19 0 25 -6 7 -7
11 -7 11 -1 0 6 8 19 18 30 21 23 35 54 23 54 -4 0 -18 -9 -31 -20 -12 -11
-27 -17 -33 -13 -6 4 -8 0 -4 -11 4 -11 3 -15 -4 -11 -14 9 -6 30 12 30 9 0
13 9 11 25 -2 20 0 22 8 10 8 -13 10 -13 10 1 0 9 -3 19 -7 22 -9 10 -34 -14
-26 -26 3 -6 1 -7 -6 -3 -9 6 -9 11 1 23 10 13 9 15 -7 11 -11 -2 -19 -10 -18
-16 2 -7 0 -11 -5 -11 -17 3 -33 -2 -29 -8 3 -5 -2 -14 -9 -21 -13 -11 -14
-10 -10 12 6 35 15 48 28 40 7 -5 9 -2 6 8 -5 11 0 14 18 10 15 -3 24 0 24 8
0 7 7 10 15 6 12 -4 13 -2 3 14 -7 10 -16 16 -20 14 -4 -3 -8 -2 -8 3 0 4 -3
19 -7 32 -5 19 -3 22 8 16 12 -7 12 -6 1 7 -20 25 -23 58 -6 58 12 0 12 2 2
14 -9 10 -15 11 -20 2 -4 -6 -8 -7 -8 -1 0 6 -8 1 -17 -10 -14 -17 -15 -18 -9
-2 4 14 2 18 -12 15 -9 -2 -16 -10 -14 -16 1 -7 -3 -12 -9 -12 -5 0 -7 -4 -4
-10 4 -6 -1 -7 -11 -3 -13 5 -15 3 -9 -7 5 -8 3 -11 -6 -8 -8 3 -22 -1 -31
-10 -17 -14 -18 -13 -19 9 -1 17 -3 19 -6 7 -2 -10 -10 -19 -16 -20 -34 -4
-43 -3 -49 7 -4 5 -12 11 -18 11 -21 3 -22 4 -10 19 11 14 10 14 -16 5 -15 -6
-34 -16 -41 -22 -10 -8 -12 -7 -7 5 5 13 -1 16 -30 15 -20 -1 -36 -5 -36 -10
0 -5 5 -6 10 -3 6 3 11 -4 12 -17 0 -13 2 -29 2 -35 2 -17 36 -51 36 -35 0 7
6 12 14 12 8 0 16 5 18 12 2 6 15 12 27 13 l23 2 -22 -17 c-20 -15 -20 -18 -6
-23 10 -4 15 -3 11 3 -3 6 -1 10 4 10 16 0 17 0 51 10 19 5 28 5 25 -1 -4 -5
-1 -9 5 -9 6 0 9 -3 7 -7 -6 -13 27 -38 51 -40 47 -2 52 -3 52 -14 0 -5 -4 -7
-10 -4 -6 3 -7 -1 -4 -9 4 -11 0 -16 -10 -16 -9 0 -16 5 -16 12 0 6 -6 4 -13
-6 -11 -15 -17 -17 -35 -7 -19 10 -21 9 -15 -5 4 -12 3 -15 -5 -10 -9 5 -9 0
0 -21 6 -15 16 -34 21 -40 6 -8 6 -13 -1 -13 -16 0 -8 -31 12 -46 14 -10 15
-16 6 -33 -6 -12 -13 -21 -16 -21 -3 0 -2 5 1 10 3 6 -1 12 -9 15 -9 3 -24 8
-33 12 -10 3 -22 5 -26 4 -5 -1 -6 3 -3 8 3 5 -4 11 -16 15 -15 3 -19 9 -13
15 17 17 55 1 56 -23 1 -15 3 -13 8 9 4 17 4 35 1 40 -4 6 -6 20 -5 32 1 16
-4 23 -17 23 -16 0 -23 11 -19 34 1 5 -5 6 -14 2 -9 -3 -21 -6 -27 -6 -5 0 -8
-12 -5 -28 2 -15 2 -22 0 -15 -2 7 -10 10 -18 7 -12 -5 -12 0 -2 25 10 27 9
33 -11 51 -17 16 -29 19 -61 14 -36 -6 -40 -4 -52 22 -19 40 -76 44 -150 11
-41 -18 -61 -22 -85 -15 -21 5 -48 3 -79 -7 -36 -10 -54 -11 -69 -3 -32 16
-56 40 -50 49 3 5 -1 6 -9 3 -8 -3 -20 2 -27 11 -7 9 -9 15 -4 14 16 -4 44 13
38 22 -3 5 -10 7 -15 4 -5 -4 -10 -1 -10 4 -1 6 -2 15 -3 20 0 5 -11 17 -24
27 -29 24 -21 53 14 49 28 -3 28 -1 13 28 -29 55 -78 70 -115 36 -17 -16 -23
-17 -32 -6 -8 9 -7 24 4 56 15 44 12 86 -8 128 -9 18 -5 29 21 68 17 25 31 50
31 55 0 13 68 80 82 80 7 0 31 16 53 35 29 25 35 35 23 35 -10 0 -18 4 -18 10
0 17 80 69 117 76 23 4 33 11 29 20 -4 11 6 14 42 14 27 0 53 5 60 12 7 7 12
8 12 4 0 -5 12 0 27 9 20 14 51 19 119 20 108 3 144 -2 144 -21 0 -8 5 -14 12
-14 6 0 4 -7 -5 -18 -10 -10 -14 -22 -10 -26 16 -16 77 -36 93 -31 10 3 30 -4
46 -18 27 -22 46 -30 117 -44 24 -5 27 -2 27 21 0 34 41 56 71 38 10 -7 28
-12 38 -12 11 0 22 -4 25 -9 5 -7 84 -23 126 -25 29 -2 40 -16 34 -43 -5 -18
-3 -24 5 -19 6 4 11 13 11 19 0 20 38 47 65 47 13 0 29 8 35 18 10 15 11 14 7
-5 -3 -13 -1 -23 4 -23 5 0 9 11 9 25 0 14 5 25 11 25 8 0 8 5 -1 15 -7 9 -9
22 -5 32 5 10 7 29 6 42 -2 14 1 21 8 17 13 -8 14 -4 5 18 -7 18 -39 21 -49 5
-15 -23 -50 -27 -77 -8 -32 23 -38 24 -38 4 0 -17 -25 -20 -35 -5 -3 6 -16 10
-28 10 -14 0 -18 3 -10 8 7 4 10 16 9 27 -4 22 22 58 35 49 5 -3 19 2 31 10
12 9 30 16 40 16 10 0 18 5 18 10 0 15 51 12 99 -4 55 -20 122 -15 154 11 l27
21 -39 16 c-51 20 -59 34 -24 42 15 4 31 12 35 18 5 7 12 4 21 -8 9 -12 20
-17 30 -13 9 3 19 1 23 -5 4 -7 3 -8 -4 -4 -7 4 -12 3 -12 -3 0 -5 19 -12 43
-16 29 -5 54 -18 79 -43 38 -36 42 -60 7 -42 -10 6 -19 8 -19 4 0 -3 -7 0 -17
7 -14 12 -16 12 -11 -1 2 -8 14 -19 25 -25 14 -6 26 -25 34 -55 6 -25 13 -40
16 -33 3 9 15 8 46 -3 55 -20 87 -5 82 37 -3 24 1 30 22 35 15 4 33 2 42 -5 9
-6 27 -17 41 -23 14 -7 41 -22 60 -34 20 -12 51 -25 70 -29 34 -7 34 -6 15 9
-19 16 -18 17 23 13 37 -4 41 -3 30 11 -11 13 -10 15 12 9 22 -5 23 -4 8 7
-11 8 -14 17 -8 26 10 16 3 33 -11 24 -5 -3 -6 -10 -3 -16 4 -6 2 -8 -4 -4 -7
4 -8 17 -2 37 7 25 7 29 -4 20 -7 -6 -15 -8 -18 -5 -3 3 -18 -11 -33 -30 -15
-20 -31 -33 -36 -30 -5 3 -6 -2 -3 -11 5 -11 2 -14 -10 -9 -10 4 -14 13 -11
24 4 14 -2 19 -30 24 -40 8 -48 27 -10 24 14 -1 25 -7 25 -12 0 -5 3 -6 6 -3
9 9 -16 38 -27 31 -5 -3 -9 2 -9 12 0 12 3 14 13 6 6 -5 27 -12 44 -15 30 -5
32 -3 23 14 -6 10 -18 19 -28 19 -10 0 -13 3 -7 8 15 10 17 32 3 32 -6 0 -4 8
6 19 10 11 15 25 11 30 -3 6 -2 11 3 11 15 0 22 -28 9 -34 -7 -2 -4 -5 6 -5 9
-1 17 4 17 10 0 6 7 9 15 5 8 -3 15 -1 15 5 0 6 5 7 10 4 6 -3 7 -17 4 -30 -5
-19 0 -26 30 -40 34 -17 51 -33 22 -22 -9 4 -12 0 -9 -12 7 -26 69 -43 136
-37 64 5 73 9 62 26 -7 12 -33 10 -67 -5 -13 -5 -18 -3 -18 9 0 9 -6 16 -12
16 -10 0 -9 3 1 9 18 12 7 28 -32 46 -24 11 -26 13 -7 9 14 -4 40 -13 58 -22
39 -18 131 -23 150 -8 8 6 60 10 117 10 85 1 98 3 76 12 -14 6 -50 11 -79 10
-30 -1 -56 2 -58 6 -3 4 2 8 12 8 13 0 14 3 5 14 -10 12 -8 13 9 9 12 -3 32 0
44 7 19 9 28 9 46 0 16 -9 19 -14 10 -20 -13 -8 4 -25 18 -17 4 2 36 1 71 -3
37 -5 73 -4 85 1 18 8 17 9 -6 4 -22 -4 -29 0 -40 22 -8 17 -23 29 -37 31 -15
2 -21 0 -17 -7 8 -12 -40 -34 -55 -25 -17 10 -10 32 10 27 10 -3 21 0 25 5 3
5 -4 10 -17 10 -28 0 -77 19 -77 29 0 5 -18 8 -39 8 -33 0 -38 -2 -28 -14 10
-12 8 -13 -13 -6 -14 4 -27 10 -30 14 -9 11 -32 12 -25 0 5 -7 -1 -10 -17 -8
-13 2 -36 -4 -50 -13 -23 -15 -28 -15 -38 -3 -7 8 -20 15 -29 16 -11 0 -9 3 7
9 12 5 22 14 22 20 0 6 5 8 10 5 6 -3 10 -1 10 5 0 6 5 8 10 5 6 -3 10 -1 10
5 0 7 6 10 14 7 7 -3 19 0 26 6 10 9 11 9 6 0 -5 -9 -2 -11 8 -7 9 3 13 10 10
15 -3 5 0 9 5 9 6 0 11 -4 11 -9 0 -4 11 -7 25 -6 14 2 23 -1 19 -6 -3 -5 6
-9 20 -9 14 0 26 -6 27 -12 0 -9 2 -9 5 -2 3 6 16 9 30 6 15 -3 29 1 34 8 5 8
14 10 26 5 17 -8 17 -9 -4 -13 -15 -2 -22 -9 -20 -20 3 -14 16 -17 66 -17 44
-1 66 -5 72 -15 5 -8 12 -11 16 -7 13 13 -23 39 -57 42 -44 4 -43 3 -30 19 14
17 0 29 -23 20 -11 -4 -16 -1 -16 10 0 9 -6 16 -12 16 -7 0 -2 7 11 16 16 12
37 15 72 12 34 -4 52 -1 60 8 6 8 23 14 37 14 l25 0 -25 23 c-33 31 -33 57 1
57 25 -1 25 -1 7 -15 -19 -14 -19 -15 5 -15 33 0 42 -9 26 -28 -8 -11 -9 -14
0 -9 7 4 16 0 22 -10 6 -10 11 -12 11 -5 0 6 10 12 23 12 12 1 33 7 46 14 l23
13 -23 7 c-42 11 -3 23 49 15 28 -4 52 -3 60 3 8 7 12 6 12 -3 1 -8 39 -33 86
-56 72 -35 90 -40 113 -32 l26 10 -28 -27 c-23 -21 -26 -29 -15 -35 9 -6 9 -9
1 -9 -7 0 -17 -9 -23 -20 -9 -16 -8 -20 5 -20 8 0 14 6 12 13 -1 7 7 11 21 10
12 -2 22 2 22 8 0 5 5 7 10 4 6 -3 10 -1 10 4 0 6 6 11 14 11 8 0 17 4 20 9 4
5 -4 7 -16 4 -20 -4 -21 -3 -5 7 9 6 27 8 39 4 18 -5 19 -4 7 9 -10 10 -19 12
-31 6 -12 -6 -18 -6 -18 1 0 5 6 10 13 10 6 1 26 7 42 15 l30 14 -37 -4 c-47
-5 -48 2 -3 20 19 8 40 25 46 37 11 22 11 22 -16 -2 l-27 -25 15 38 c16 38 8
50 -15 21 -27 -34 -57 -60 -89 -78 -30 -16 -28 -13 14 25 26 24 47 51 47 60 0
18 37 55 46 46 3 -3 17 -1 31 4 21 8 24 7 19 -6 -7 -19 8 -19 27 0 8 8 17 11
21 8 3 -3 20 -7 37 -8 36 -3 26 12 -11 17 -40 5 -34 41 9 46 18 2 40 1 49 -3
13 -5 12 -8 -4 -21 -17 -14 -17 -15 -1 -10 10 3 30 -2 45 -12 14 -9 23 -12 19
-5 -11 17 5 23 44 14 18 -4 46 -4 61 0 15 4 27 4 26 1 -3 -26 4 -30 22 -12 18
18 29 19 109 14 71 -5 96 -3 122 10 37 19 40 19 37 7 -2 -5 6 -16 17 -24 17
-13 17 -17 5 -31 -12 -16 -11 -16 16 -5 43 19 51 28 34 39 -11 7 -6 12 23 25
20 8 37 17 37 19 0 6 -29 1 -36 -7 -11 -11 -24 2 -17 18 3 10 -1 15 -11 15
-13 0 -11 6 10 25 43 40 32 45 -136 61 -41 4 -79 7 -85 8 -21 3 -36 19 -31 33
4 10 1 13 -13 8 -23 -7 -38 12 -22 28 15 15 14 30 -1 21 -7 -4 -2 5 11 19 17
19 20 27 10 27 -10 1 -9 3 4 11 9 5 22 7 29 3 6 -4 8 -3 4 4 -3 5 0 12 6 15
16 5 48 -3 48 -12z m-6745 -1 c14 -6 3 -9 -40 -9 -33 0 -67 4 -75 9 -19 12 86
12 115 0z m5773 -9 c39 -1 41 -2 30 -21 -16 -25 -35 -33 -44 -18 -5 7 -2 8 7
4 8 -4 5 0 -6 9 -18 14 -21 14 -31 1 -9 -14 -14 -12 -34 9 l-23 24 29 -3 c16
-2 48 -4 72 -5z m-6535 -9 c19 -5 23 -20 5 -19 -30 1 -49 -4 -44 -11 2 -4 -14
-8 -37 -8 -91 -1 -227 -34 -227 -55 0 -5 -10 -9 -22 -9 -23 0 -23 0 1 13 53
26 35 35 -64 33 -77 -2 -95 0 -90 11 3 11 -4 13 -33 10 -21 -1 -43 -6 -49 -10
-6 -4 -13 -3 -15 2 -1 5 -21 13 -42 17 -28 5 -37 4 -32 -5 4 -6 2 -11 -3 -11
-17 0 -13 18 7 28 9 5 102 8 206 6 104 -1 198 2 210 7 21 8 194 9 229 1z m585
-6 c3 -3 0 -12 -7 -20 -14 -17 -71 -27 -68 -12 1 6 -10 10 -25 9 -30 -2 -35 6
-15 26 11 12 102 10 115 -3z m352 4 c0 -5 -4 -10 -10 -10 -5 0 -10 5 -10 10 0
6 5 10 10 10 6 0 10 -4 10 -10z m654 -5 c-7 -16 -24 -21 -24 -6 0 8 7 13 27
20 1 1 0 -6 -3 -14z m162 -33 c-3 -20 -9 -27 -27 -29 -42 -2 -49 -4 -76 -14
-12 -4 -25 -4 -28 0 -3 5 3 12 12 15 12 5 14 9 5 18 -7 7 -12 15 -12 19 0 13
52 20 66 8 20 -16 45 -4 37 18 -6 16 -5 16 9 5 10 -8 15 -24 14 -40z m-849 32
c-3 -3 -12 -4 -19 -1 -8 3 -5 6 6 6 11 1 17 -2 13 -5z m5749 -10 c18 -14 18
-15 -6 -8 -31 8 -50 24 -29 24 8 0 24 -7 35 -16z m-7371 -4 c-3 -5 -12 -10
-18 -10 -7 0 -6 4 3 10 19 12 23 12 15 0z m7340 -24 c11 -8 15 -16 8 -16 -6 0
-15 5 -18 10 -4 6 -11 7 -17 4 -7 -5 -4 -12 7 -21 21 -14 8 -18 -14 -4 -12 8
-12 12 -2 25 11 13 11 16 -3 16 -9 0 -16 5 -16 10 0 12 21 3 55 -24z m-6511
12 c-3 -4 0 -17 6 -28 6 -12 7 -20 1 -20 -5 0 -13 9 -16 20 -4 13 -15 20 -31
20 -15 0 -23 4 -19 10 4 6 19 9 35 8 16 -1 26 -6 24 -10z m1740 6 c22 -8 20
-15 -13 -52 -23 -24 -38 -32 -63 -31 -33 0 -33 0 -8 12 14 6 26 12 28 13 3 2
9 26 11 46 1 3 11 4 24 1 18 -4 19 -3 7 6 -17 12 -10 14 14 5z m86 -4 c0 -5
-4 -10 -10 -10 -5 0 -10 5 -10 10 0 6 5 10 10 10 6 0 10 -4 10 -10z m6840 0
c0 -5 -5 -10 -11 -10 -5 0 -7 5 -4 10 3 6 8 10 11 10 2 0 4 -4 4 -10z m60 4
c0 -8 -19 -13 -24 -6 -3 5 1 9 9 9 8 0 15 -2 15 -3z m-3100 -19 c0 -9 -9 -15
-22 -14 -13 0 -17 3 -10 6 6 2 10 9 6 14 -3 5 2 9 10 9 9 0 16 -7 16 -15z
m835 -34 c19 -11 19 -12 -2 -6 -15 4 -23 2 -23 -6 0 -8 -7 -6 -20 6 -11 10
-17 22 -14 26 3 5 -2 9 -11 9 -9 0 -13 5 -10 10 4 7 17 3 33 -8 15 -11 36 -24
47 -31z m-4095 23 c0 -2 -18 -4 -41 -4 -22 0 -38 4 -35 8 5 8 76 4 76 -4z
m-1748 -10 c-5 -10 -23 -7 -37 7 -6 6 -1 8 15 6 14 -2 23 -8 22 -13z m-1773
-15 c-16 -10 -23 -4 -14 10 3 6 11 8 17 5 6 -4 5 -9 -3 -15z m1051 11 c0 -18
43 -32 137 -44 12 -2 20 0 18 5 -3 4 23 6 57 4 35 -3 64 -9 66 -14 2 -6 17 -8
35 -4 l32 6 -24 -20 c-19 -15 -20 -20 -8 -20 10 0 17 4 17 8 0 4 7 10 16 13 8
3 12 2 9 -4 -3 -6 -1 -10 5 -10 6 0 8 -4 5 -10 -3 -5 3 -10 14 -10 26 0 51
-26 51 -55 0 -19 -4 -22 -21 -18 -19 5 -20 7 -4 16 14 8 15 11 4 18 -26 16
-51 11 -44 -10 5 -16 1 -18 -25 -16 -17 1 -40 12 -51 24 -23 25 -38 28 -18 4
11 -13 12 -17 1 -21 -18 -6 15 -42 39 -42 10 0 21 -5 24 -10 5 -8 11 -7 21 0
17 15 109 -13 122 -36 10 -18 60 -26 69 -11 4 6 1 7 -7 2 -9 -5 -11 -4 -6 3 4
7 14 12 22 12 8 0 13 -4 10 -9 -6 -9 17 -22 37 -20 7 0 3 5 -8 10 l-20 9 20
-4 c11 -2 27 -7 36 -10 13 -6 17 -1 17 18 0 14 -4 23 -9 20 -5 -3 -9 -1 -9 5
0 16 37 32 69 29 23 -2 28 -5 19 -15 -6 -7 -21 -13 -34 -13 -25 0 -29 -7 -16
-28 7 -10 17 -9 51 3 46 16 61 13 61 -11 0 -12 5 -11 28 3 15 10 29 20 32 23
3 3 10 6 15 7 53 8 60 7 60 -7 0 -15 13 -30 28 -30 5 0 6 4 3 9 -3 5 1 14 8
21 12 9 17 7 25 -9 8 -14 8 -22 -1 -27 -7 -5 -8 -3 -3 6 5 9 4 11 -4 6 -9 -6
-9 -11 0 -22 13 -16 23 -19 14 -4 -3 6 1 7 9 4 20 -8 11 -23 -12 -22 -9 0 -26
-3 -36 -7 -13 -6 -17 -5 -12 3 3 6 1 14 -5 18 -8 4 -9 3 -5 -4 15 -25 -41 0
-60 26 -10 14 -13 13 -22 -5 -15 -27 8 -48 42 -39 14 3 28 2 31 -4 3 -6 -1 -7
-9 -4 -9 3 -16 1 -16 -4 0 -6 -9 -14 -21 -17 -25 -8 -19 -17 15 -20 14 -2 27
3 30 11 3 8 11 14 18 13 10 0 10 -2 1 -6 -20 -8 -15 -23 7 -23 11 0 20 -7 20
-16 0 -8 4 -13 9 -9 6 3 15 -3 21 -12 11 -17 11 -17 6 0 -6 20 22 37 33 20 3
-6 15 -12 26 -14 11 -3 20 -10 20 -18 0 -8 9 -19 19 -25 59 -34 80 -82 59
-134 -10 -24 -11 -38 -3 -52 6 -11 13 -20 16 -20 2 0 0 9 -7 21 -16 31 3 46
32 25 32 -22 42 -20 34 7 -3 12 -3 17 2 12 12 -15 63 -36 73 -30 4 2 25 -12
46 -32 22 -20 33 -33 25 -29 -11 7 -12 2 -7 -27 4 -23 2 -44 -6 -57 -17 -27
-38 -25 -38 3 0 31 -10 40 -28 24 -11 -8 -14 -8 -9 0 4 6 2 15 -4 19 -7 4 -9
3 -6 -3 6 -9 -30 -47 -45 -48 -3 0 -10 -4 -15 -9 -4 -5 4 -6 20 -2 15 3 27 4
27 0 0 -11 -25 -31 -36 -27 -12 4 -30 -58 -26 -89 1 -10 -3 -18 -8 -18 -5 0
-7 -7 -3 -16 4 -11 8 -12 13 -4 5 8 9 4 13 -9 3 -12 1 -24 -4 -27 -5 -3 -9
-14 -9 -25 0 -10 -5 -19 -11 -19 -7 0 -9 10 -4 27 4 16 3 25 -1 21 -4 -4 -14
-2 -23 4 -13 10 -14 10 -3 -2 15 -17 16 -50 1 -50 -5 0 -8 4 -5 8 3 5 -1 9 -9
9 -20 0 -19 -14 2 -25 13 -8 10 -11 -18 -18 -19 -4 -42 -7 -51 -5 -20 2 -24
-14 -7 -24 5 -4 8 -12 6 -18 -3 -7 5 -22 16 -34 11 -13 15 -23 9 -23 -7 0 -6
-11 4 -35 18 -44 19 -89 2 -79 -10 6 -10 5 -1 -7 7 -9 30 -24 51 -34 30 -15
38 -24 34 -40 -7 -38 25 -58 80 -52 57 7 79 1 71 -19 -3 -9 2 -14 15 -14 12 0
24 -4 27 -10 3 -6 33 -7 73 -4 37 4 64 3 60 -1 -4 -5 -3 -15 4 -22 9 -11 9
-16 0 -22 -7 -4 -10 -15 -6 -24 9 -24 -17 -22 -44 4 -14 13 -30 18 -42 14 -17
-5 -41 5 -151 66 -24 14 -36 15 -59 6 -23 -9 -32 -8 -47 5 -10 9 -35 19 -56
22 -37 6 -72 28 -61 39 3 3 -5 11 -18 18 -21 11 -22 11 -9 -4 22 -28 -11 -22
-43 8 -25 23 -37 53 -16 40 6 -3 10 -1 10 4 0 6 -6 11 -12 12 -10 0 -10 2 0 6
10 4 10 8 0 21 -10 12 -10 14 -1 8 9 -5 11 -2 7 8 -3 9 -10 16 -15 16 -5 0 -9
6 -9 13 0 18 -45 59 -54 50 -4 -5 -7 -3 -6 2 4 20 0 48 -7 42 -3 -4 -12 1 -18
11 -14 19 -15 39 -2 34 5 -1 6 2 2 8 -9 14 -32 13 -38 -2 -4 -10 -8 -9 -16 2
-6 8 -11 11 -11 6 0 -6 10 -20 22 -33 12 -13 19 -25 16 -28 -8 -8 -75 58 -92
93 -10 20 -24 32 -36 32 -33 0 -24 -38 24 -93 45 -55 66 -88 66 -108 0 -8 -4
-8 -15 1 -8 7 -15 21 -15 32 0 10 -7 21 -15 24 -8 4 -12 10 -9 15 3 5 -3 8
-13 6 -10 -1 -18 3 -18 8 0 6 3 9 7 8 16 -6 7 9 -27 42 -19 19 -42 57 -52 85
-17 47 -20 50 -60 56 -24 3 -40 10 -37 15 3 5 1 9 -4 9 -5 0 -14 11 -20 25
-15 34 -8 31 28 -7 26 -29 29 -31 30 -12 0 11 -11 35 -25 54 -14 19 -25 40
-25 46 0 30 -24 65 -41 61 -19 -5 -19 7 -1 54 6 15 8 29 6 32 -3 3 0 8 7 13 8
5 10 3 5 -7 -4 -8 -1 -6 7 3 8 10 26 19 41 20 15 1 32 8 38 15 14 17 31 17 22
1 -4 -7 -4 -10 1 -6 4 4 14 3 22 -4 11 -9 12 -7 6 8 -6 16 -4 17 9 7 21 -18
29 -6 15 24 -7 17 -8 27 0 31 11 7 9 40 -3 50 -4 4 -4 -1 -1 -10 4 -10 2 -18
-3 -18 -5 0 -14 8 -20 18 -10 14 -11 13 -6 -8 5 -24 4 -24 -9 -6 -8 11 -15 26
-15 34 0 9 -7 6 -19 -9 -22 -27 -10 -56 27 -65 23 -6 29 -19 13 -29 -5 -3 -12
-1 -16 4 -3 6 -12 8 -20 4 -8 -3 -15 0 -15 6 0 6 -10 12 -22 12 l-23 2 22 4
c20 4 21 7 12 25 -9 17 -8 24 6 34 21 15 12 49 -10 40 -10 -3 -15 1 -15 12 -1
16 -1 16 -11 0 -5 -10 -19 -18 -29 -18 -24 0 -26 15 -5 24 8 3 15 0 15 -6 0
-6 3 -8 6 -5 10 9 -13 34 -37 40 -17 5 -20 2 -16 -14 4 -16 2 -19 -15 -13 -14
4 -18 2 -14 -5 4 -6 12 -11 18 -11 11 0 37 -29 38 -42 0 -13 -47 -9 -77 7 -15
9 -41 20 -57 25 -18 7 -26 15 -23 25 4 8 -2 16 -14 20 -21 7 -26 30 -8 41 8 5
7 9 -4 16 -9 4 -14 16 -12 26 2 11 -3 19 -10 19 -10 0 -11 -6 -4 -25 11 -29 5
-52 -13 -52 -9 0 -8 3 2 10 9 6 11 10 3 10 -7 0 -10 7 -7 15 4 9 0 15 -10 15
-9 0 -16 5 -16 10 0 6 -6 10 -13 10 -7 0 -24 10 -37 22 -33 31 -93 71 -84 56
5 -7 2 -9 -9 -5 -9 3 -17 1 -20 -6 -2 -8 -18 -2 -46 16 -23 15 -45 26 -49 24
-8 -5 -88 6 -199 29 -26 5 -33 3 -33 -9 0 -8 -11 -18 -24 -21 -13 -3 -32 -9
-42 -13 -30 -11 21 39 54 53 26 12 26 12 4 13 -13 1 -21 5 -17 10 10 17 -11
21 -44 8 -17 -6 -31 -18 -31 -26 0 -19 -29 -51 -46 -51 -7 0 -11 8 -9 20 2 11
0 20 -6 20 -5 0 -9 7 -9 15 0 18 26 20 33 3 4 -9 6 -8 6 3 1 8 20 26 42 39 35
19 45 21 62 11 11 -7 16 -8 12 -2 -13 21 122 4 175 -23 19 -9 33 -10 45 -3 13
7 16 6 11 -2 -6 -10 0 -13 22 -10 4 1 6 6 4 11 -2 6 6 8 18 5 17 -4 20 -2 15
11 -5 14 -2 13 14 -3 37 -37 51 -46 61 -40 6 3 10 -2 10 -12 0 -11 3 -14 8 -7
5 9 11 8 20 -2 11 -12 10 -14 -4 -14 -10 0 -15 -3 -11 -6 3 -4 13 -4 22 0 15
5 14 9 -5 36 l-21 30 20 0 c12 0 21 5 21 10 0 6 5 10 11 10 5 0 7 -5 3 -11 -4
-7 1 -10 11 -7 27 5 29 25 3 31 -13 3 -45 4 -73 1 -50 -4 -129 11 -152 28 -9
7 -9 16 -1 34 11 24 28 33 28 14z m830 -17 c13 -14 13 -14 -7 -4 -12 6 -34 11
-50 11 -22 0 -25 2 -13 10 18 11 49 4 70 -17z m610 7 c0 -5 -2 -10 -4 -10 -3
0 -8 5 -11 10 -3 6 -1 10 4 10 6 0 11 -4 11 -10z m5050 -5 c11 -13 10 -14 -4
-9 -9 3 -16 10 -16 15 0 13 6 11 20 -6z m-4895 -5 c-3 -5 -10 -10 -16 -10 -5
0 -9 5 -9 10 0 6 7 10 16 10 8 0 12 -4 9 -10z m1905 -21 c0 -8 -49 -26 -89
-34 -13 -2 -32 -7 -43 -11 -11 -3 -30 -2 -42 4 -11 6 -29 13 -38 16 -11 3 -15
11 -12 21 5 11 -1 15 -22 16 -25 2 -26 2 -6 6 13 3 29 -1 37 -7 8 -7 20 -8 27
-4 7 5 35 9 61 10 27 2 51 5 54 7 6 7 73 -15 73 -24z m-4130 6 c0 -17 -2 -18
-25 -9 -13 5 -14 8 -3 15 19 13 28 11 28 -6z m510 -2 c86 -9 144 -53 71 -53
-26 0 -72 16 -111 39 -8 5 -26 14 -40 20 l-25 12 25 -6 c14 -3 50 -8 80 -12z
m1541 3 c7 4 10 2 7 -7 -6 -18 -37 -24 -50 -11 -16 16 1 36 17 22 8 -7 19 -8
26 -4z m279 4 c0 -5 -5 -10 -11 -10 -5 0 -7 5 -4 10 3 6 8 10 11 10 2 0 4 -4
4 -10z m3900 -5 c-7 -8 -21 -15 -31 -15 -10 0 -21 -4 -24 -10 -9 -15 -25 -12
-25 5 0 8 12 17 28 21 15 3 32 7 37 9 22 7 27 4 15 -10z m-6526 -16 c-3 -5
-10 -7 -15 -3 -5 3 -7 10 -3 15 3 5 10 7 15 3 5 -3 7 -10 3 -15z m2005 -20
c-5 -10 -16 -19 -24 -19 -7 0 -17 -6 -21 -12 -4 -7 -4 -10 1 -6 4 4 14 3 21
-3 10 -9 15 -7 20 5 7 18 28 22 22 4 -3 -7 1 -23 8 -36 22 -44 -11 -59 -68
-32 -22 10 -25 16 -16 27 8 11 8 17 -2 26 -10 9 -11 9 -6 0 7 -12 3 -15 -26
-17 -21 -2 -17 34 5 46 12 6 32 22 45 35 18 20 26 22 37 13 11 -9 12 -17 4
-31z m436 31 c3 -5 1 -10 -4 -10 -6 0 -11 5 -11 10 0 6 2 10 4 10 3 0 8 -4 11
-10z m-688 -6 c-3 -3 -12 -4 -19 -1 -8 3 -5 6 6 6 11 1 17 -2 13 -5z m1244
-20 c21 -19 16 -34 -11 -34 -28 0 -110 38 -110 51 0 17 98 4 121 -17z m-471 4
c0 -4 -4 -8 -9 -8 -6 0 -12 4 -15 8 -3 5 1 9 9 9 8 0 15 -4 15 -9z m380 -29
c62 -31 77 -45 38 -34 -47 13 -117 48 -112 57 7 11 6 12 74 -23z m-1087 -20
c-4 -16 -8 -17 -14 -7 -5 7 -4 14 1 16 6 2 7 9 4 14 -4 6 -2 8 4 5 5 -4 8 -16
5 -28z m4637 21 c0 -5 -4 -10 -10 -10 -5 0 -10 5 -10 10 0 6 5 10 10 10 6 0
10 -4 10 -10z m2963 3 c-7 -2 -19 -2 -25 0 -7 3 -2 5 12 5 14 0 19 -2 13 -5z
m-8366 -9 c-3 -3 -12 -4 -19 -1 -8 3 -5 6 6 6 11 1 17 -2 13 -5z m1003 -10 c0
-8 -4 -12 -10 -9 -5 3 -10 10 -10 16 0 5 5 9 10 9 6 0 10 -7 10 -16z m7509 6
c20 10 61 3 61 -11 0 -5 -7 -9 -15 -9 -8 0 -19 -9 -25 -20 -6 -11 -15 -20 -21
-20 -6 0 -7 5 -4 10 8 12 -17 9 -26 -4 -4 -4 -19 0 -35 10 -27 18 -27 19 -7
22 12 2 27 10 34 19 8 9 15 11 17 4 2 -7 9 -8 21 -1z m-7707 -25 c14 0 20 -15
6 -15 -9 0 -22 8 -29 17 -12 15 -12 16 1 8 8 -6 18 -10 22 -10z m843 -4 c3 -5
1 -12 -5 -16 -5 -3 -10 -2 -10 4 0 5 -8 12 -17 14 -14 4 -13 5 4 6 12 0 24 -3
28 -8z m96 -12 c15 -10 35 -20 46 -20 10 -1 2 -5 -17 -8 -19 -4 -48 -2 -65 3
-16 5 -36 10 -42 12 -7 2 -10 9 -8 16 8 20 56 18 86 -3z m3657 -19 c-1 -22 -6
-40 -11 -40 -4 0 -5 -5 -1 -12 4 -6 3 -8 -4 -5 -11 7 -11 32 1 43 4 4 7 18 7
31 0 13 2 23 5 23 3 0 5 -18 3 -40z m2861 36 c-2 -2 -15 -9 -29 -15 -24 -11
-24 -11 -6 3 16 13 49 24 35 12z m-7220 -50 c11 -7 11 -10 0 -17 -8 -4 -19 -3
-26 3 -27 22 -6 34 26 14z m-1709 -6 c0 -5 -4 -10 -10 -10 -5 0 -10 5 -10 10
0 6 5 10 10 10 6 0 10 -4 10 -10z m1554 -11 c-3 -5 -10 -7 -15 -3 -5 3 -7 10
-3 15 3 5 10 7 15 3 5 -3 7 -10 3 -15z m-604 7 c0 -11 -19 -15 -25 -6 -3 5 1
10 9 10 9 0 16 -2 16 -4z m210 0 c0 -2 -7 -6 -15 -10 -8 -3 -15 -1 -15 4 0 6
7 10 15 10 8 0 15 -2 15 -4z m460 -20 c8 -3 4 -4 -9 -2 -13 3 -33 0 -43 -5
-17 -9 -18 -8 -6 10 8 13 17 17 27 12 9 -5 23 -11 31 -15z m1064 -48 c-3 -4 3
-8 13 -9 10 0 13 -3 6 -6 -20 -8 -15 -33 6 -33 11 0 23 -5 27 -12 5 -7 2 -8
-7 -3 -8 5 -11 4 -6 -1 5 -5 24 -9 43 -10 51 -3 52 -11 4 -24 -30 -8 -39 -15
-32 -22 7 -7 17 -5 33 6 27 18 59 21 59 5 0 -5 4 -8 9 -4 9 5 31 -24 31 -39 0
-3 -17 -8 -37 -12 -21 -4 -43 -11 -50 -16 -14 -11 -85 0 -78 12 3 5 1 12 -5
15 -6 4 -10 3 -9 -2 5 -31 -2 -35 -58 -32 -32 2 -64 0 -70 -4 -7 -5 -19 -5
-25 -1 -7 4 -10 4 -6 0 10 -12 -79 -96 -101 -96 -10 0 -22 7 -25 16 -3 8 -11
12 -16 9 -8 -5 -8 -11 0 -20 13 -16 -28 -45 -65 -45 -32 0 -90 24 -100 41 -5
8 -4 10 3 5 7 -4 12 -3 12 3 0 6 -16 18 -35 27 -32 15 -40 42 -9 30 7 -3 20 1
28 9 7 8 25 17 40 21 29 7 32 14 14 32 -9 9 -7 12 9 12 12 0 23 6 25 13 3 6
16 13 29 14 13 1 40 6 59 10 33 9 34 10 14 21 -17 9 -25 8 -42 -8 -26 -24 -33
-25 -25 -3 4 10 2 14 -4 10 -6 -4 -9 5 -7 24 3 26 2 28 -16 19 -30 -16 -35
-12 -9 8 34 26 93 52 118 52 28 0 71 -28 71 -47 0 -8 3 -13 8 -11 50 24 62 34
67 50 4 10 10 18 14 18 4 0 13 12 20 27 l12 26 34 -33 c19 -18 32 -37 29 -42z
m6240 28 c-22 -24 -47 -47 -57 -51 -24 -9 -57 -46 -57 -64 0 -12 3 -12 12 -3
14 14 52 16 43 2 -3 -5 -13 -6 -22 -3 -13 5 -15 2 -10 -11 6 -14 3 -17 -9 -12
-11 4 -15 2 -11 -8 3 -8 -1 -20 -10 -28 -15 -12 -16 -10 -10 14 6 23 4 26 -9
21 -13 -5 -15 0 -11 27 6 35 32 70 53 70 7 0 25 16 40 36 27 35 54 52 83 53 7
1 -4 -19 -25 -43z m-8784 -1 c-7 -8 -20 -15 -29 -14 -10 0 -12 2 -3 6 6 2 10
9 6 14 -3 5 5 9 17 9 18 0 19 -2 9 -15z m1540 -15 c0 -10 -7 -20 -15 -24 -8
-3 -15 -13 -16 -23 0 -16 -1 -16 -9 2 -5 11 -9 14 -9 7 -1 -7 -5 -10 -11 -7
-5 3 -10 0 -10 -7 0 -9 -3 -9 -10 2 -14 21 -12 30 3 24 8 -3 14 2 14 10 0 8
-5 13 -11 10 -6 -3 -1 3 11 14 27 23 63 18 63 -8z m-90 16 c0 -2 -7 -9 -15
-16 -13 -11 -14 -10 -9 4 5 14 24 23 24 12z m108 -64 c4 -14 0 -15 -22 -6 -9
3 -16 10 -16 14 0 12 33 5 38 -8z m4390 -15 c1 -15 -8 -32 -24 -46 -14 -12
-22 -27 -18 -34 4 -7 4 -9 -1 -5 -4 4 -14 3 -22 -3 -17 -14 -17 3 0 20 10 10
8 11 -8 6 -19 -6 -19 -6 -3 8 10 8 16 16 13 19 -3 2 6 11 20 18 14 7 25 19 25
27 0 23 16 14 18 -10z m1306 -4 c-9 -48 -64 -83 -77 -49 -4 9 3 13 21 12 22
-1 27 4 27 22 0 18 17 41 32 42 1 0 -1 -12 -3 -27z m1504 -6 c2 -9 -2 -17 -8
-17 -7 0 -10 6 -7 14 3 8 2 17 -4 20 -5 2 -4 3 3 2 7 -1 14 -10 16 -19z
m-7378 -25 c0 -5 -7 -9 -15 -9 -8 0 -15 4 -15 9 0 4 7 8 15 8 8 0 15 -4 15 -8z
m2715 -1 c3 -5 0 -13 -6 -16 -5 -4 -8 -13 -5 -20 5 -13 -33 -35 -61 -35 -11 0
-10 6 8 25 13 13 29 25 36 25 7 0 10 7 7 15 -7 16 11 21 21 6z m970 -7 c12 -5
14 -9 4 -14 -15 -10 -41 -1 -33 11 6 11 8 11 29 3z m2978 -15 c3 -12 2 -32 -3
-45 -6 -15 -6 -24 0 -25 6 -1 14 -2 19 -3 5 0 13 -4 17 -8 9 -9 -10 -16 -56
-21 -19 -3 -48 -10 -64 -16 -16 -6 -31 -9 -34 -7 -2 3 7 8 22 12 14 3 26 10
26 14 0 10 -31 24 -48 21 -10 -2 -11 2 -3 18 12 22 46 18 37 -5 -7 -19 8 -18
24 1 10 12 9 15 -5 15 -9 0 -19 9 -22 20 -3 11 -9 20 -14 20 -5 0 -9 5 -9 11
0 8 4 8 14 0 11 -9 22 -8 48 3 44 19 45 19 51 -5z m-130 4 c-7 -2 -21 -2 -30
0 -10 3 -4 5 12 5 17 0 24 -2 18 -5z m-2856 -26 c4 -7 0 -8 -11 -4 -10 4 -22
7 -27 7 -5 0 -9 4 -9 9 0 12 38 2 47 -12z m1153 -9 c0 -4 -4 -8 -9 -8 -6 0
-12 4 -15 8 -3 5 1 9 9 9 8 0 15 -4 15 -9z m-4404 -11 c4 -4 -7 -8 -24 -8 -51
-2 -57 -4 -55 -17 2 -7 -6 -11 -20 -8 -24 3 -31 28 -10 36 19 8 100 6 109 -3z
m5801 -2 c0 -9 -6 -14 -13 -11 -8 3 -11 0 -8 -9 3 -7 -3 -16 -15 -20 -12 -3
-21 -11 -21 -17 0 -6 -11 -3 -25 6 -21 14 -24 14 -19 1 4 -8 2 -15 -4 -15 -17
0 -23 30 -7 36 8 4 12 10 9 15 -3 5 6 5 20 -1 18 -7 25 -6 23 2 -1 6 9 15 23
19 37 10 37 10 37 -6z m515 -17 c-7 -7 -12 -8 -12 -2 0 14 12 26 19 19 2 -3
-1 -11 -7 -17z m-6302 -24 c0 -2 -9 0 -20 6 -11 6 -20 13 -20 16 0 2 9 0 20
-6 11 -6 20 -13 20 -16z m2710 22 c0 -3 -4 -8 -10 -11 -5 -3 -10 -1 -10 4 0 6
5 11 10 11 6 0 10 -2 10 -4z m442 -9 c14 -1 30 -5 34 -9 4 -4 12 -4 18 0 19
11 54 13 61 2 3 -5 1 -11 -4 -11 -6 -1 -15 -3 -21 -4 -5 -1 -19 -3 -31 -4 -14
-1 -19 -6 -16 -16 4 -8 2 -17 -3 -20 -11 -7 -6 -36 12 -65 12 -19 10 -23 -11
-41 -24 -19 -97 -28 -86 -9 3 6 -1 7 -9 4 -9 -3 -16 -10 -16 -15 0 -14 43 -39
70 -40 l25 -1 -25 -7 c-24 -7 -24 -7 -5 -15 19 -8 19 -9 -5 -16 -14 -4 -24
-12 -22 -19 1 -7 -2 -10 -7 -6 -6 3 -7 13 -4 22 4 11 3 14 -6 9 -6 -4 -18 -2
-26 4 -11 9 -15 9 -15 1 0 -6 4 -11 8 -11 5 0 9 -6 10 -12 6 -51 6 -61 -5 -65
-7 -3 -13 0 -13 7 0 6 5 8 10 5 6 -3 10 -1 10 5 0 8 -9 10 -24 6 -23 -6 -49
11 -45 30 5 32 -6 46 -53 68 -49 22 -120 76 -101 76 5 0 14 -5 20 -11 5 -5 30
-12 54 -15 80 -8 109 -16 102 -27 -3 -6 -1 -7 5 -3 6 3 15 -2 21 -11 6 -10 11
-13 11 -6 0 6 -4 14 -9 17 -9 6 0 74 12 93 4 6 1 14 -5 17 -7 4 -3 4 9 2 15
-3 20 0 16 10 -6 17 -18 18 -44 3 -15 -7 -34 -6 -76 6 -68 20 -94 14 -68 -15
17 -18 14 -25 -9 -21 -4 1 -18 -4 -30 -12 -11 -8 -38 -13 -59 -13 -24 1 -43
-4 -50 -14 -11 -13 -10 -13 8 0 19 14 19 14 6 -3 -12 -16 -16 -16 -31 -2 -23
20 -43 19 -65 -5 -18 -19 -17 -20 4 -20 30 0 18 -16 -16 -23 -40 -8 -65 9 -62
41 2 15 7 33 13 40 12 17 0 27 -17 13 -8 -6 -12 -22 -10 -36 5 -25 -8 -44 -44
-64 -14 -7 -20 -17 -17 -26 4 -10 0 -15 -11 -15 -9 0 -14 -4 -11 -9 7 -11 -22
-23 -35 -15 -5 3 -9 -1 -9 -9 0 -8 -7 -17 -15 -21 -19 -7 -19 -34 0 -38 24 -5
-50 -50 -96 -58 -45 -8 -49 6 -8 28 23 13 22 13 -16 8 -48 -7 -81 8 -40 18 14
4 29 4 34 2 4 -3 8 2 8 10 0 18 -40 36 -62 28 -9 -4 -15 0 -15 9 0 8 6 18 13
20 7 3 5 6 -5 6 -10 1 -18 6 -18 12 0 5 5 7 10 4 6 -3 10 3 10 15 0 20 4 21
78 19 86 -2 135 12 126 35 -4 12 0 14 20 10 15 -2 26 0 26 6 0 6 -8 10 -17 9
-40 -4 -52 3 -73 35 -13 22 -31 36 -48 39 -20 3 -18 4 8 4 20 -1 41 2 47 6 7
4 14 -1 18 -13 4 -13 15 -20 31 -20 14 0 22 -4 19 -10 -6 -9 14 -14 43 -11 6
1 12 -2 12 -7 0 -5 7 -9 15 -9 10 0 13 7 9 24 -4 16 -2 23 9 23 8 0 17 7 21
15 3 8 12 12 21 9 8 -3 12 -10 9 -15 -3 -5 5 -9 18 -9 13 0 29 9 36 20 6 11
18 17 26 14 7 -3 16 2 19 10 6 16 37 11 37 -6 0 -5 -4 -6 -10 -3 -5 3 -10 1
-10 -4 0 -12 22 -13 59 -2 l23 6 -26 14 c-33 18 -33 25 -1 39 35 16 36 16 24
-14 -8 -23 -8 -25 5 -15 8 7 23 12 33 11 32 -4 44 0 38 10 -4 6 -11 7 -17 4
-7 -4 -8 -2 -4 4 9 15 36 16 36 2 0 -5 9 -10 20 -10 11 0 20 -4 20 -10 0 -11
49 -14 74 -4 8 3 12 12 9 20 -3 8 0 14 6 14 6 0 11 -6 11 -13 0 -7 12 -13 28
-14 26 -2 26 -2 4 8 -29 11 -18 33 12 24 11 -4 33 -7 48 -8z m1033 3 c3 -6 -1
-7 -9 -4 -18 7 -21 14 -7 14 6 0 13 -4 16 -10z m-3285 -8 c0 -4 -6 -14 -12
-21 -11 -11 -10 -13 2 -9 8 3 21 -2 28 -9 8 -8 22 -11 31 -8 12 3 17 -1 17
-15 0 -24 -14 -29 -88 -28 -51 0 -74 10 -50 20 4 2 18 20 31 41 21 34 41 48
41 29z m3581 -15 c-10 -9 -11 -8 -5 6 3 10 9 15 12 12 3 -3 0 -11 -7 -18z
m1564 14 c3 -5 2 -12 -3 -15 -5 -3 -9 1 -9 9 0 17 3 19 12 6z m288 2 c-23 -4
-33 -33 -12 -33 5 0 7 6 3 13 -4 6 -3 9 1 4 13 -11 16 -47 5 -47 -6 0 -10 -7
-10 -16 0 -14 -2 -15 -17 -3 -15 12 -16 12 -11 -8 5 -17 -6 -34 -53 -78 -59
-54 -92 -68 -102 -41 -8 19 36 58 67 60 17 0 24 6 21 14 -3 8 7 12 28 13 23 1
26 3 10 6 -27 5 -30 18 -7 27 8 3 12 11 9 17 -4 6 2 13 13 16 14 3 18 11 14
25 -6 23 13 38 43 36 17 -1 17 -1 -2 -5z m117 -19 c0 -8 -4 -12 -10 -9 -5 3
-10 13 -10 21 0 8 5 12 10 9 6 -3 10 -13 10 -21z m-6474 -2 c-3 -2 -1 -13 5
-23 7 -15 6 -19 -6 -19 -8 0 -15 -5 -15 -11 0 -5 -4 -7 -10 -4 -5 3 -10 2 -10
-3 0 -17 -50 -33 -71 -22 -32 18 -22 31 22 25 36 -4 39 -3 25 10 -8 8 -24 15
-36 15 -12 0 -19 4 -16 9 4 5 0 11 -6 14 -7 2 5 3 26 2 23 -2 46 3 53 11 8 7
20 11 29 7 8 -3 13 -8 10 -11z m6028 -34 c6 -4 14 -4 18 -2 5 3 17 2 29 -1 30
-10 23 -59 -10 -63 -15 -3 -21 0 -16 8 4 6 -5 23 -19 37 -14 14 -26 22 -26 17
-1 -5 -7 2 -15 16 -10 19 -10 27 -2 32 7 5 16 -1 22 -15 5 -12 14 -25 19 -29z
m-7034 27 c7 -9 8 -15 2 -15 -5 0 -12 7 -16 15 -3 8 -4 15 -2 15 2 0 9 -7 16
-15z m162 -7 c-5 -22 -25 -48 -35 -48 -3 0 -8 7 -11 15 -4 11 0 15 12 13 12
-2 17 3 16 20 0 12 5 22 12 22 8 0 10 -8 6 -22z m912 -3 c-4 -8 -11 -12 -16
-9 -6 4 -5 10 3 15 19 12 19 11 13 -6z m72 -11 c-4 -9 -2 -13 5 -8 7 4 10 1 7
-7 -7 -22 -50 -16 -59 9 -8 20 -5 22 22 22 24 0 30 -4 25 -16z m4265 -1 c13
-16 12 -17 -2 -5 -14 11 -22 8 -48 -14 -23 -19 -31 -22 -31 -10 0 16 36 46 56
46 6 0 18 -8 25 -17z m-3732 -7 c-12 -10 -60 -16 -54 -6 3 5 18 10 32 10 15 0
24 -2 22 -4z m1856 -27 c-10 -15 -25 -10 -19 6 4 8 10 12 15 9 5 -3 7 -10 4
-15z m1711 5 c-4 -9 0 -24 8 -33 14 -15 13 -17 -5 -18 -14 -1 -19 3 -15 12 3
8 1 17 -4 20 -6 4 -10 1 -10 -6 0 -7 -3 -9 -7 -6 -3 4 2 16 13 26 24 25 28 25
20 5z m-4420 -32 c-18 -16 -18 -16 -6 6 6 13 14 21 18 18 3 -4 -2 -14 -12 -24z
m368 14 c7 3 13 -2 13 -10 0 -11 -5 -12 -23 -4 -13 6 -20 16 -17 21 5 8 8 7
10 0 3 -7 10 -10 17 -7z m826 -6 c0 -5 -4 -10 -10 -10 -5 0 -10 5 -10 10 0 6
5 10 10 10 6 0 10 -4 10 -10z m-475 -25 c-1 -14 -13 -37 -25 -50 -19 -20 -26
-23 -39 -13 -9 7 -13 9 -9 4 3 -4 2 -21 -2 -38 -8 -26 -7 -29 8 -23 13 5 14 3
6 -5 -7 -7 -18 -10 -26 -8 -13 3 -13 10 0 56 13 48 16 51 29 35 8 -10 12 -13
9 -6 -4 6 -1 15 5 19 8 5 8 8 -1 14 -8 5 -7 9 5 13 9 4 13 3 10 -3 -3 -6 -2
-10 3 -10 5 0 12 9 15 20 7 28 16 25 12 -5z m-225 -17 c0 -5 7 -8 16 -8 8 0
12 -5 9 -10 -4 -6 -11 -8 -16 -5 -5 4 -12 -1 -15 -9 -3 -8 -14 -18 -25 -21
-11 -4 -17 -11 -14 -16 4 -5 -3 -9 -14 -9 -10 0 -26 -3 -35 -6 -13 -5 -13 -2
-3 20 9 18 21 26 46 28 33 3 58 28 27 28 -8 0 -14 8 -13 19 1 15 4 17 19 7 10
-6 18 -14 18 -18z m5847 9 c4 -7 0 -8 -11 -4 -10 4 -22 7 -27 7 -5 0 -9 4 -9
9 0 12 38 2 47 -12z m-6137 7 c0 -1 -3 -9 -6 -18 -8 -22 -21 -20 -34 4 -9 18
-8 20 15 18 14 -1 25 -3 25 -4z m4270 -4 c0 -5 -2 -10 -4 -10 -3 0 -8 5 -11
10 -3 6 -1 10 4 10 6 0 11 -4 11 -10z m32 -22 c-6 -6 -12 -4 -16 7 -3 9 -2 13
4 10 6 -3 10 0 11 7 0 10 2 10 6 0 3 -8 1 -18 -5 -24z m-4377 13 c-3 -5 5 -11
17 -13 12 -2 23 -8 25 -13 5 -16 -40 -13 -60 4 -16 15 -16 16 0 23 25 9 25 9
18 -1z m4123 1 c9 9 15 2 27 -25 8 -20 15 -41 15 -46 0 -10 -60 -34 -60 -23 0
4 -5 -1 -11 -10 -11 -20 -44 -24 -54 -8 -3 6 -1 10 4 10 6 0 11 7 11 15 0 8
-4 15 -10 15 -5 0 -10 -4 -10 -10 0 -13 -19 -9 -42 10 -23 18 -23 32 0 29 26
-3 94 30 86 42 -4 8 -1 8 13 0 14 -7 23 -7 31 1z m2056 -13 c-3 -5 -1 -9 5 -9
5 0 9 -10 7 -22 -3 -28 -77 -108 -100 -108 -25 0 -31 -29 -10 -45 15 -12 16
-14 4 -15 -22 0 -40 19 -33 36 5 13 -14 19 -40 15 -5 -1 -6 3 -2 9 3 5 2 10
-2 10 -11 0 -10 76 0 86 4 4 7 3 7 -3 0 -15 40 -3 47 13 3 8 8 12 12 10 4 -3
19 6 34 18 18 16 35 22 52 18 14 -2 22 -8 19 -13z m-2424 -3 c0 -2 -7 -6 -15
-10 -8 -3 -15 -1 -15 4 0 6 7 10 15 10 8 0 15 -2 15 -4z m-3570 -21 c-20 -24
3 -44 30 -27 27 16 37 -4 14 -29 -16 -17 -16 -22 -4 -29 17 -10 48 -5 100 18
41 18 69 16 90 -5 13 -14 10 -15 -38 -10 -49 6 -54 4 -64 -18 -6 -13 -19 -26
-29 -28 -11 -3 -17 -1 -13 4 10 17 -5 9 -32 -16 -27 -25 -103 -38 -89 -15 3 6
-1 10 -9 10 -9 0 -16 -7 -16 -16 0 -8 -5 -12 -10 -9 -8 5 -7 11 0 20 7 8 9 18
6 23 -6 10 30 52 44 52 13 0 13 47 0 55 -12 8 6 35 22 35 6 0 5 -7 -2 -15z
m300 -10 c0 -17 -6 -25 -17 -26 -11 0 -13 -3 -5 -6 18 -7 15 -30 -8 -46 -11
-8 -17 -17 -13 -21 4 -4 -1 -4 -10 0 -13 5 -15 10 -8 17 7 7 7 15 -2 25 -9 12
-9 16 1 19 6 3 9 9 6 15 -6 10 32 47 49 48 4 0 7 -11 7 -25z m2360 8 c14 -2
48 -25 75 -49 29 -26 60 -44 74 -44 19 0 21 -3 11 -15 -6 -8 -9 -19 -5 -25 3
-5 -1 -20 -10 -32 l-16 -23 6 25 c5 20 0 31 -24 53 -17 15 -36 28 -43 29 -6 2
-19 17 -27 33 -12 23 -26 32 -58 39 -24 5 -43 13 -43 18 0 6 8 7 18 3 9 -3 28
-9 42 -12z m3660 -3 c0 -6 10 -15 23 -20 l22 -9 -22 0 c-13 -1 -23 -6 -23 -12
0 -5 -5 -7 -12 -3 -9 6 -9 9 -1 11 7 3 9 11 6 19 -3 7 -9 11 -14 8 -5 -3 -9 0
-9 5 0 6 7 11 15 11 8 0 15 -5 15 -10z m-6410 -10 c0 -5 -5 -10 -11 -10 -5 0
-7 5 -4 10 3 6 8 10 11 10 2 0 4 -4 4 -10z m4535 -10 c-3 -5 -12 -7 -20 -3
-21 7 -19 13 6 13 11 0 18 -4 14 -10z m-4268 -84 c-1 -6 -9 -16 -17 -22 -12
-10 -12 -14 -1 -28 7 -9 10 -17 5 -17 -5 -1 -13 -2 -19 -3 -5 0 -23 -13 -39
-28 -29 -28 -56 -39 -36 -15 44 52 89 115 85 119 -3 3 2 5 9 5 8 0 14 -5 13
-11z m3703 4 c0 -5 -5 -10 -11 -10 -5 0 -7 5 -4 10 3 6 8 10 11 10 2 0 4 -4 4
-10z m1910 2 c0 -5 -12 -14 -27 -21 l-28 -11 24 20 c26 22 31 24 31 12z
m-6810 -12 c0 -5 -2 -10 -4 -10 -3 0 -8 5 -11 10 -3 6 -1 10 4 10 6 0 11 -4
11 -10z m7310 -24 c0 -6 -4 -5 -9 3 -5 7 -14 11 -20 7 -7 -5 -9 -1 -5 9 5 12
9 13 20 4 8 -6 14 -17 14 -23z m-6073 8 c-3 -3 -12 -4 -19 -1 -8 3 -5 6 6 6
11 1 17 -2 13 -5z m1990 -10 c-3 -3 -12 -4 -19 -1 -8 3 -5 6 6 6 11 1 17 -2
13 -5z m-2447 -14 c0 -5 -2 -10 -4 -10 -3 0 -8 5 -11 10 -3 6 -1 10 4 10 6 0
11 -4 11 -10z m4254 -22 c-3 -4 -11 -5 -19 -1 -21 7 -19 12 4 10 11 0 18 -5
15 -9z m2246 -29 c0 -4 -11 -10 -25 -13 -15 -4 -22 -11 -19 -20 7 -18 -46 -32
-57 -14 -6 9 -11 4 -18 -15 -6 -15 -15 -27 -20 -27 -6 0 -8 7 -5 15 7 18 -24
20 -76 5 -31 -9 -33 -8 -19 6 9 8 35 16 60 16 29 1 48 8 57 19 6 10 26 20 42
24 17 4 36 15 43 26 11 18 13 18 25 2 6 -9 12 -20 12 -24z m-3493 10 c-1 -16
-4 -16 -29 -3 -35 18 -35 21 1 21 22 0 29 -5 28 -18z m211 3 c6 -18 -15 -14
-22 4 -4 10 -1 14 6 12 6 -2 14 -10 16 -16z m2672 -2 c0 -5 -2 -10 -4 -10 -3
0 -8 5 -11 10 -3 6 -1 10 4 10 6 0 11 -4 11 -10z m288 -27 c3 -27 -1 -32 -29
-42 -40 -14 -39 -14 -39 2 0 8 9 24 20 37 11 13 20 27 20 32 0 24 25 -2 28
-29z m-6188 17 c0 -5 -4 -10 -10 -10 -5 0 -10 5 -10 10 0 6 5 10 10 10 6 0 10
-4 10 -10z m224 -52 c-10 -12 -13 -18 -6 -14 6 4 12 3 12 -2 0 -6 -7 -13 -16
-16 -8 -3 -12 -2 -9 4 3 6 2 10 -4 10 -16 0 -1 28 17 33 10 3 19 5 21 6 2 0
-4 -9 -15 -21z m76 2 c-20 -13 -33 -13 -25 0 3 6 14 10 23 10 15 0 15 -2 2
-10z m-65 -50 c-3 -5 -11 -10 -16 -10 -6 0 -7 5 -4 10 3 6 11 10 16 10 6 0 7
-4 4 -10z m6014 -31 c-13 -26 -20 -21 -12 9 3 12 9 19 14 16 5 -3 4 -14 -2
-25z m-5991 -37 c4 -14 -34 -16 -42 -3 -6 10 13 21 28 17 6 -1 12 -8 14 -14z
m-368 -104 c5 -24 5 -47 0 -53 -4 -5 -9 -18 -11 -28 -4 -17 -5 -17 -24 -2 -19
16 -19 16 -1 10 19 -6 19 -5 3 13 -9 10 -17 26 -17 36 0 9 -4 14 -10 11 -5 -3
-7 0 -4 9 3 8 12 12 20 9 13 -5 18 9 17 46 -2 30 20 -9 27 -51z m40 52 c8 -5
11 -10 5 -10 -5 0 -17 5 -25 10 -8 5 -10 10 -5 10 6 0 17 -5 25 -10z m-340
-90 c0 -5 -4 -10 -10 -10 -5 0 -10 5 -10 10 0 6 5 10 10 10 6 0 10 -4 10 -10z
m4667 -6 c-3 -3 -12 -4 -19 -1 -8 3 -5 6 6 6 11 1 17 -2 13 -5z m63 -4 c12 -8
12 -10 -5 -10 -11 0 -27 5 -35 10 -12 8 -12 10 5 10 11 0 27 -5 35 -10z m1650
-64 c-5 -15 -14 -24 -20 -21 -15 9 -12 27 7 55 14 19 18 21 21 9 1 -8 -2 -28
-8 -43z m-1120 30 c0 -2 -7 -7 -16 -10 -8 -3 -12 -2 -9 4 6 10 25 14 25 6z
m-5296 -21 c3 -8 1 -15 -3 -15 -5 0 -11 7 -15 15 -3 8 -1 15 3 15 5 0 11 -7
15 -15z m5165 -25 c-15 -10 -41 -1 -34 10 3 5 14 6 26 3 15 -4 17 -8 8 -13z
m-4334 -10 c3 -5 1 -10 -4 -10 -6 0 -11 5 -11 10 0 6 2 10 4 10 3 0 8 -4 11
-10z m4435 -11 c0 -6 -6 -9 -12 -6 -7 2 -25 1 -40 -4 -21 -6 -26 -4 -21 7 3 8
9 11 14 8 5 -3 17 -1 26 5 19 10 33 6 33 -10z m253 4 c-7 -2 -19 -2 -25 0 -7
3 -2 5 12 5 14 0 19 -2 13 -5z m-4563 -41 c24 -9 24 -9 -9 -14 -22 -3 -35 0
-38 9 -3 7 -11 13 -19 13 -8 0 -14 4 -14 9 0 9 28 4 80 -17z m-383 2 c-3 -3
-12 -4 -19 -1 -8 3 -5 6 6 6 11 1 17 -2 13 -5z m4539 -9 c-3 -10 5 -20 23 -29
35 -19 55 -42 42 -50 -5 -4 -14 2 -20 11 -5 10 -13 14 -17 10 -5 -4 4 -19 18
-32 l27 -25 15 22 c9 12 16 28 16 34 0 6 9 14 20 17 11 3 18 2 15 -3 -3 -4 2
-11 10 -14 14 -5 14 -9 0 -35 -8 -17 -22 -34 -31 -39 -23 -13 -19 -23 16 -40
26 -13 29 -17 16 -24 -19 -11 -22 -32 -3 -23 6 4 1 -2 -13 -13 -16 -13 -27
-17 -31 -10 -4 6 -12 7 -19 3 -9 -6 -6 -11 11 -21 13 -7 28 -10 33 -7 5 4 6 1
2 -5 -4 -7 -16 -12 -27 -12 -11 0 -19 -7 -20 -17 0 -15 -2 -15 -8 2 -5 11 -7
23 -5 26 2 4 -3 13 -12 20 -12 10 -37 56 -49 89 -1 3 -8 19 -15 35 -13 32 -23
122 -14 136 9 15 26 10 20 -6z m58 -4 c8 -12 -14 -19 -37 -13 -15 4 -16 7 -5
13 17 11 35 11 42 0z m-6434 -16 c0 -8 -4 -15 -10 -15 -5 0 -10 7 -10 15 0 8
5 15 10 15 6 0 10 -7 10 -15z m2383 -14 c30 -12 38 -26 8 -16 -10 3 -31 1 -47
-5 -24 -9 -31 -8 -41 6 -7 10 -13 20 -13 24 0 9 62 3 93 -9z m4997 -1 c-11
-20 -31 -26 -43 -13 -11 10 13 33 35 33 16 0 17 -3 8 -20z m-5550 -9 c0 -11
-3 -22 -7 -24 -5 -3 -8 6 -8 19 0 13 3 24 8 24 4 0 7 -9 7 -19z m-155 -11 c3
-5 1 -10 -4 -10 -6 0 -11 5 -11 10 0 6 2 10 4 10 3 0 8 -4 11 -10z m6033 -26
c1 -14 -4 -32 -12 -39 -8 -8 -11 -25 -8 -41 3 -18 1 -25 -7 -23 -7 3 -13 9
-13 14 -1 6 -8 16 -17 22 -10 8 -12 15 -6 20 6 5 11 19 13 33 4 40 10 49 29
44 11 -3 20 -15 21 -30z m-5231 20 c-3 -3 -12 -4 -19 -1 -8 3 -5 6 6 6 11 1
17 -2 13 -5z m-639 -54 c-8 -13 -15 -16 -19 -8 -10 15 -2 28 17 28 12 0 12 -4
2 -20z m4689 -26 c-3 -3 -12 -4 -19 -1 -8 3 -5 6 6 6 11 1 17 -2 13 -5z
m-1061 -39 c9 -8 11 -15 6 -15 -5 0 -15 7 -22 15 -7 8 -9 15 -6 15 4 0 14 -7
22 -15z m2269 -5 c10 -11 16 -20 13 -20 -3 0 -13 9 -23 20 -10 11 -16 20 -13
20 3 0 13 -9 23 -20z m-55 -25 c0 -8 -2 -15 -4 -15 -2 0 -6 7 -10 15 -3 8 -1
15 4 15 6 0 10 -7 10 -15z m-2216 -11 c20 -8 21 -31 1 -31 -8 0 -11 5 -8 10 3
5 -1 13 -8 18 -16 10 -8 12 15 3z m2327 -32 c-5 -2 -7 -11 -4 -20 3 -9 3 -14
-1 -11 -4 4 -9 22 -11 40 -4 32 -3 33 11 14 8 -11 10 -21 5 -23z m-5461 24 c0
-3 -4 -8 -10 -11 -5 -3 -10 -1 -10 4 0 6 5 11 10 11 6 0 10 -2 10 -4z m61 -31
c5 4 6 -1 2 -11 -5 -14 -1 -15 24 -10 16 4 40 2 54 -3 13 -5 18 -10 10 -10
-11 -1 -11 -4 -1 -16 14 -17 40 -3 40 21 0 8 11 14 26 14 22 0 25 -2 14 -15
-10 -12 -10 -15 1 -16 13 -1 27 0 39 4 3 1 7 -2 8 -8 7 -20 25 -35 43 -35 24
0 39 -30 39 -77 0 -28 -3 -34 -10 -23 -11 18 -13 9 -10 -51 1 -21 -3 -40 -9
-44 -6 -3 -11 -1 -11 5 0 6 -5 8 -11 4 -8 -5 -10 1 -7 20 6 33 1 33 -24 1 -11
-14 -23 -23 -28 -20 -5 3 -11 1 -15 -5 -3 -5 -17 -7 -31 -4 -14 4 -24 2 -24
-5 0 -6 -12 -11 -26 -11 -33 0 -30 33 4 38 27 4 29 32 2 39 -11 3 -20 9 -20
14 0 5 -9 9 -20 9 -14 0 -20 7 -20 21 0 28 39 81 52 73 6 -4 8 -2 4 4 -3 5 0
12 6 15 7 2 0 8 -15 12 -20 5 -27 13 -24 24 7 30 -69 14 -97 -20 -14 -16 -30
-29 -36 -29 -7 0 -9 -7 -6 -15 3 -8 9 -22 13 -32 5 -12 3 -14 -8 -8 -12 8 -12
6 0 -8 7 -10 19 -17 25 -16 6 1 22 1 36 0 22 -1 19 -4 -17 -21 -41 -18 -62
-39 -27 -26 13 5 14 3 6 -7 -13 -15 -62 -21 -62 -8 0 6 -9 9 -20 8 -11 -1 -20
-7 -20 -15 0 -7 4 -11 9 -7 5 3 12 1 16 -5 4 -6 11 -7 17 -4 7 4 8 2 4 -4 -4
-7 -2 -12 3 -12 6 0 11 -7 11 -15 0 -22 -23 -18 -39 7 -13 21 -14 21 -27 3 -8
-10 -14 -13 -14 -7 0 18 -23 14 -41 -6 -23 -27 -29 -48 -16 -61 9 -9 9 -14 1
-19 -11 -7 -16 -42 -6 -42 3 0 11 8 19 18 8 9 6 2 -4 -16 -15 -27 -16 -34 -4
-41 9 -6 12 -19 8 -40 -4 -18 -2 -31 3 -31 6 0 10 5 10 11 0 5 5 7 11 4 5 -4
9 -17 8 -28 -2 -12 1 -33 5 -45 8 -24 46 -69 46 -54 0 4 -5 13 -12 20 -13 13
-19 54 -6 46 4 -3 8 -11 8 -19 0 -8 6 -18 14 -22 8 -4 16 -12 18 -18 2 -5 10
-9 19 -8 9 1 29 -11 44 -27 16 -17 36 -30 46 -30 9 0 22 -7 29 -15 10 -12 10
-15 0 -15 -10 0 -10 -3 0 -15 7 -8 23 -15 36 -15 13 0 24 -4 24 -8 0 -5 19
-16 41 -25 36 -14 40 -19 29 -32 -7 -8 -8 -15 -3 -15 14 0 9 -43 -5 -48 -7 -2
-9 -8 -6 -13 3 -6 -1 -18 -9 -27 -9 -9 -19 -30 -23 -46 -5 -23 -4 -27 7 -21
12 7 12 6 1 -7 -7 -8 -9 -24 -5 -33 4 -12 3 -16 -4 -12 -14 9 -24 -18 -16 -39
4 -10 0 -20 -10 -26 -10 -5 -17 -14 -17 -20 0 -7 5 -6 15 2 9 8 15 9 15 2 0
-6 -4 -13 -8 -16 -4 -2 -9 -18 -10 -35 -2 -23 2 -31 13 -31 11 0 15 7 13 22
-2 15 2 23 12 23 9 0 15 9 14 22 0 12 3 20 8 17 5 -3 7 -29 5 -57 -3 -42 -9
-54 -28 -64 -19 -10 -26 -10 -34 0 -5 7 -23 13 -40 14 -16 1 -24 -1 -18 -4 9
-3 10 -10 3 -22 -6 -13 -4 -24 6 -39 12 -17 12 -26 4 -42 -9 -16 -8 -25 1 -36
10 -12 9 -13 -7 -7 -15 5 -13 -1 10 -28 16 -18 38 -39 49 -45 20 -11 20 -12
-2 -23 -12 -7 -25 -9 -30 -7 -17 11 -17 -19 0 -36 12 -12 20 -13 28 -5 6 6 11
7 11 2 0 -6 -17 -23 -38 -40 -31 -25 -46 -30 -89 -29 -29 0 -53 -3 -53 -8 0
-4 8 -9 18 -9 9 -1 1 -5 -18 -9 -32 -7 -32 -7 -7 -9 15 0 36 4 46 11 11 6 26
8 37 3 11 -5 22 -8 26 -7 3 1 5 -4 4 -11 -4 -26 -18 -37 -46 -35 -16 1 -27 5
-24 9 2 4 -1 11 -7 14 -6 4 -13 -3 -16 -15 -6 -22 -7 -22 -20 -5 -7 11 -14 16
-14 12 -3 -17 -7 -49 -8 -74 -2 -38 -20 -16 -26 31 -4 27 -1 38 11 43 12 4 13
7 3 14 -11 6 -11 14 -1 42 7 18 12 43 12 55 0 25 20 72 31 72 4 0 9 -6 12 -12
2 -7 4 0 4 16 0 15 -3 23 -6 17 -5 -8 -13 -7 -27 4 -17 13 -17 14 -2 15 24 0
49 50 35 71 -6 9 -7 24 -2 35 10 23 10 22 20 58 4 17 4 31 -2 35 -18 11 -21
63 -7 130 8 36 17 114 20 172 l7 107 -43 31 c-24 17 -48 31 -53 31 -19 0 -78
52 -73 65 2 7 1 16 -4 21 -14 15 -100 184 -94 184 4 0 1 6 -5 13 -6 8 -8 17
-4 21 4 4 0 4 -10 0 -26 -9 -22 27 6 51 19 17 20 20 5 23 -10 2 -18 12 -18 23
0 25 27 79 40 79 5 0 12 9 15 20 3 11 12 20 20 20 7 0 16 7 19 16 8 20 -4 95
-16 111 -6 7 -7 21 -3 30 6 17 7 17 19 0 13 -16 14 -16 19 3 7 27 25 26 29 -2
4 -30 28 -35 29 -6 0 13 3 17 6 10 3 -7 -1 -26 -7 -43 -7 -16 -10 -32 -7 -35
12 -12 35 43 41 96 3 32 2 49 -3 41 -6 -10 -10 -10 -16 -1 -12 19 3 24 32 11
24 -11 26 -14 10 -22 -19 -11 -23 -34 -7 -44 5 -3 20 1 33 10 18 11 23 22 20
39 -4 18 0 25 14 28 10 2 20 0 21 -4 2 -5 8 -6 13 -3z m5334 5 c-3 -5 -10 -10
-16 -10 -5 0 -9 5 -9 10 0 6 7 10 16 10 8 0 12 -4 9 -10z m-5709 -51 c9 -10
26 -19 37 -19 11 0 18 -3 14 -6 -11 -12 -63 7 -97 36 l-35 30 32 -11 c17 -6
39 -19 49 -30z m5724 21 c0 -11 -7 -20 -15 -20 -13 0 -14 4 -5 20 6 11 13 20
15 20 3 0 5 -9 5 -20z m82 -60 c2 -17 -2 -25 -12 -25 -9 0 -14 -8 -12 -19 4
-21 -29 -19 -36 3 -3 8 0 11 7 7 18 -11 13 6 -6 19 -12 9 -25 10 -42 3 -25 -9
-25 -9 -7 11 13 14 26 19 42 15 15 -4 24 -2 24 6 0 6 5 8 10 5 6 -3 10 -1 10
6 0 22 18 -4 22 -31z m-3001 -51 c11 0 11 -2 1 -6 -7 -3 -22 3 -32 12 -18 16
-19 16 -19 -1 -1 -40 -5 -54 -13 -54 -5 0 -8 10 -7 23 2 12 0 28 -5 35 -4 7
-5 20 -2 29 6 14 11 12 34 -10 16 -15 35 -27 43 -28z m50 27 c-6 -7 -8 -16 -4
-19 3 -4 1 -7 -5 -7 -15 0 -16 17 -2 25 6 4 7 11 4 17 -4 7 -2 8 5 4 8 -6 9
-12 2 -20z m1693 5 c3 -5 -1 -14 -8 -20 -12 -10 -13 -8 -9 8 6 23 9 25 17 12z
m-1824 -36 c0 -8 -4 -17 -10 -20 -6 -4 -7 1 -3 11 4 12 3 15 -5 10 -13 -8 -17
6 -6 17 10 9 24 -2 24 -18z m2865 -13 c18 -10 18 -11 2 -12 -10 0 -16 -4 -13
-9 3 -5 -5 -12 -19 -15 l-25 -6 25 -39 c20 -32 21 -40 10 -45 -8 -3 -15 -14
-15 -24 0 -10 -9 -27 -20 -37 -11 -10 -20 -26 -20 -35 0 -10 -8 -24 -17 -31
-14 -12 -16 -12 -8 0 8 13 16 91 9 91 -1 0 -14 -4 -29 -10 -21 -8 -27 -7 -32
7 -6 15 -7 15 -13 -1 -3 -10 -10 -17 -15 -17 -6 0 -18 -8 -29 -17 -18 -16 -18
-16 -12 6 5 16 4 22 -6 20 -8 -2 -12 6 -11 22 1 14 -1 19 -3 12 -3 -6 -10 -9
-15 -6 -16 9 10 33 30 27 12 -3 35 12 68 44 28 26 57 53 64 59 8 6 22 22 33
34 16 20 20 21 30 8 6 -8 20 -20 31 -26z m-4835 2 c0 -2 -13 -4 -30 -4 -16 0
-30 4 -30 8 0 5 14 7 30 4 17 -2 30 -6 30 -8z m83 -25 c10 -11 15 -24 12 -29
-3 -5 2 -21 11 -35 15 -23 15 -25 0 -19 -9 3 -23 1 -31 -6 -12 -10 -15 -9 -15
8 0 20 -26 49 -36 39 -3 -3 0 -16 7 -29 6 -12 8 -20 4 -16 -5 4 -14 3 -21 -3
-17 -14 -44 11 -44 40 0 26 -12 27 -28 1 -10 -17 -10 -20 5 -20 13 0 14 -3 5
-12 -9 -9 -15 -8 -27 8 -20 27 -18 37 9 50 27 13 37 8 54 -21 11 -20 11 -20
12 2 0 12 5 25 10 28 6 3 10 15 10 26 0 16 4 19 23 13 12 -3 30 -15 40 -25z
m1947 11 c0 -5 -2 -10 -4 -10 -3 0 -8 5 -11 10 -3 6 -1 10 4 10 6 0 11 -4 11
-10z m2235 -25 c11 -12 28 -25 38 -28 19 -7 23 -32 7 -42 -6 -4 0 -15 15 -27
14 -10 25 -26 25 -34 0 -8 7 -17 15 -20 8 -4 15 -12 15 -19 0 -6 12 -25 26
-40 19 -21 28 -25 34 -15 4 7 13 9 19 6 6 -4 11 -2 11 3 0 6 -5 11 -11 11 -5
0 -7 5 -4 10 12 20 25 -1 25 -41 0 -29 -4 -39 -16 -39 -25 0 -94 62 -122 110
-15 25 -32 51 -39 58 -7 7 -13 19 -13 25 0 7 -23 34 -50 60 -28 27 -50 50 -50
53 0 12 58 -11 75 -31z m-4621 -47 c-5 -8 -2 -9 9 -5 24 9 21 -6 -4 -21 -12
-8 -18 -9 -14 -3 3 6 2 11 -3 11 -5 0 -9 7 -9 15 0 8 7 15 14 15 8 0 11 -5 7
-12z m2394 -44 c4 -18 3 -18 -13 1 -13 15 -15 16 -12 3 4 -11 1 -15 -11 -13
-9 2 -20 4 -24 4 -8 1 -5 22 6 39 11 17 49 -7 54 -34z m3068 13 c10 4 12 0 8
-11 -5 -14 -24 -23 -24 -12 0 2 -2 10 -3 18 -2 7 -2 10 0 6 2 -4 11 -4 19 -1z
m-5117 -28 c14 -40 14 -46 0 -32 -6 6 -18 9 -25 6 -16 -6 -19 13 -4 22 5 3 7
12 3 20 -3 8 -1 15 5 15 6 0 15 -14 21 -31z m5016 12 c-3 -6 -16 -11 -28 -11
-21 0 -21 1 3 13 27 15 36 14 25 -2z m-2918 3 c-3 -4 -2 -16 4 -28 10 -20 9
-20 -5 -2 -14 17 -13 36 1 36 4 0 3 -3 0 -6z m2859 -3 c-7 -11 -76 -20 -76
-10 0 10 20 17 53 18 16 1 26 -3 23 -8z m-2236 -13 c0 -4 -9 -8 -21 -8 -11 0
-18 4 -15 8 3 5 12 9 21 9 8 0 15 -4 15 -9z m1692 -23 c2 3 5 -2 5 -10 0 -18
-9 -19 -25 -3 -16 16 -15 33 1 19 8 -6 16 -9 19 -6z m-4354 -12 c2 -8 -5 -13
-17 -13 -12 0 -21 6 -21 16 0 18 31 15 38 -3z m5197 7 c23 -9 25 -13 15 -25
-14 -17 -50 -20 -50 -4 0 5 6 7 13 3 10 -6 10 -4 0 7 -13 13 -17 29 -9 29 3 0
17 -5 31 -10z m-360 -10 c3 -6 18 -8 33 -4 25 5 26 4 9 -9 -11 -9 -14 -18 -8
-21 5 -4 16 -19 24 -34 12 -25 12 -28 -5 -28 -10 0 -23 12 -30 27 -16 35 -28
27 -28 -17 0 -19 -5 -34 -11 -34 -7 0 -9 11 -6 26 2 15 0 28 -8 30 -9 4 -9 13
-1 39 11 36 20 43 31 25z m-442 -51 c-4 -15 -9 -17 -17 -9 -8 8 -7 13 3 19 9
6 10 11 2 15 -6 4 -11 13 -11 19 0 7 7 4 14 -6 8 -10 12 -27 9 -38z m-4683 21
c0 -5 -2 -10 -4 -10 -3 0 -8 5 -11 10 -3 6 -1 10 4 10 6 0 11 -4 11 -10z m510
-2 c0 -4 7 -5 15 -2 8 4 15 1 15 -4 0 -20 -16 -21 -45 -2 -26 17 -27 19 -7 17
12 -1 22 -5 22 -9z m5106 -13 c-6 -17 16 -20 43 -5 26 13 88 -8 95 -33 4 -15
11 -18 33 -14 20 4 33 -1 48 -18 12 -12 28 -25 36 -28 11 -4 12 -7 1 -15 -10
-7 -2 -20 34 -57 31 -30 41 -46 29 -42 -11 3 -30 8 -42 12 -13 3 -23 9 -23 13
-1 21 -33 43 -73 51 -26 5 -44 5 -41 0 9 -15 -13 -10 -26 6 -7 8 -10 22 -6 30
4 10 -1 15 -15 15 -11 0 -27 6 -34 14 -8 7 -41 16 -75 20 -75 9 -110 23 -103
43 5 11 9 11 25 -3 18 -17 20 -17 41 4 25 26 62 30 53 7z m29 5 c3 -5 1 -10
-4 -10 -6 0 -11 5 -11 10 0 6 2 10 4 10 3 0 8 -4 11 -10z m-4994 -14 c11 6 47
-12 76 -39 13 -11 33 -21 45 -22 16 -1 25 -11 32 -33 13 -46 2 -71 -59 -136
-51 -56 -59 -69 -56 -89 3 -19 -22 -96 -30 -91 -5 3 -7 10 -4 15 4 5 1 9 -5 9
-8 0 -9 -11 -5 -31 5 -22 3 -34 -6 -40 -11 -7 -10 -9 4 -9 11 0 17 -5 14 -12
-2 -7 -10 -12 -16 -10 -6 1 -11 -2 -11 -8 0 -5 -14 -10 -30 -10 -18 0 -33 -6
-36 -15 -4 -8 -14 -15 -23 -16 -11 0 -12 -2 -3 -6 21 -8 -15 -28 -78 -43 -43
-10 -50 -15 -35 -21 11 -4 14 -8 8 -8 -7 -1 -13 -8 -13 -16 0 -9 -7 -18 -15
-21 -8 -4 -12 -10 -9 -15 3 -5 10 -7 15 -4 16 11 9 -19 -11 -44 -18 -21 -52
-24 -49 -4 4 23 -2 43 -11 38 -6 -4 -9 -14 -8 -23 2 -11 -3 -17 -14 -16 -10 1
-15 -2 -12 -7 3 -5 -9 -9 -25 -9 -17 0 -31 5 -31 10 0 6 5 10 11 10 6 0 9 6 6
14 -6 16 19 30 28 16 4 -6 12 -5 19 3 18 15 11 27 -16 27 -17 0 -18 2 -8 15
10 13 9 15 -10 15 -18 0 -20 3 -11 14 10 12 8 18 -12 31 -36 23 -43 62 -17 90
12 13 18 28 14 38 -3 10 -1 17 5 17 6 0 11 -5 11 -12 0 -17 10 -4 15 21 2 13
-1 21 -11 21 -16 0 -19 16 -4 25 17 11 11 24 -10 20 -19 -4 -24 4 -21 31 1 6
-13 11 -30 12 -22 0 -39 -8 -56 -26 -14 -15 -24 -20 -21 -12 3 8 -3 32 -14 53
-18 35 -17 68 1 39 4 -6 17 -10 29 -7 12 2 24 0 27 -6 4 -5 15 -14 27 -20 19
-10 20 -9 14 17 l-6 29 20 -24 c11 -13 20 -21 20 -17 0 3 12 1 26 -5 20 -7 32
-6 50 6 27 17 31 9 10 -20 -8 -11 -12 -25 -9 -32 3 -7 0 -13 -6 -13 -6 0 -11
-4 -11 -9 0 -5 9 -7 20 -4 11 3 20 10 20 16 0 6 3 7 7 4 9 -10 45 52 37 65 -8
13 15 28 33 21 7 -3 13 -12 13 -20 0 -8 5 -11 11 -7 10 6 7 30 -7 68 -4 11 -2
16 7 14 10 -2 14 7 14 29 0 17 4 29 9 26 5 -4 6 5 3 19 -5 20 -1 28 18 38 21
11 29 11 50 0 13 -7 22 -18 18 -23 -3 -6 -1 -7 6 -3 9 6 9 11 1 21 -9 11 -7
12 11 8 20 -5 21 -3 17 26 -3 17 -1 34 4 37 15 10 8 24 -13 24 -11 0 -18 4
-14 9 3 6 18 6 37 1 17 -5 35 -7 39 -4z m4732 -3 c-7 -2 -21 -2 -30 0 -10 3
-4 5 12 5 17 0 24 -2 18 -5z m-76 -9 c-3 -3 -12 -4 -19 -1 -8 3 -5 6 6 6 11 1
17 -2 13 -5z m703 -31 c0 -17 -36 -43 -58 -43 -25 0 -26 9 0 14 28 6 48 18 42
27 -3 5 0 9 5 9 6 0 11 -3 11 -7z m100 -59 c0 -3 -7 -1 -15 6 -8 7 -15 17 -15
22 0 5 7 3 15 -6 8 -8 15 -18 15 -22z m-6555 8 c-3 -3 -11 0 -18 7 -9 10 -8
11 6 5 10 -3 15 -9 12 -12z m5242 -16 c3 -3 -2 -8 -11 -12 -17 -7 -66 13 -66
27 0 7 68 -5 77 -15z m105 -14 c7 -7 23 -12 36 -12 13 0 21 -4 18 -8 -3 -5
-20 -7 -38 -5 -51 6 -110 26 -98 33 16 10 69 5 82 -8z m-4632 -58 c0 -8 -10
-3 -25 12 -14 14 -25 27 -25 30 0 2 11 -3 25 -12 14 -9 25 -22 25 -30z m4885
26 c19 -8 19 -9 -2 -9 -12 -1 -25 4 -28 9 -7 12 2 12 30 0z m155 6 c0 -7 -84
-46 -89 -41 -7 8 5 16 46 30 45 17 43 16 43 11z m-185 -44 c-3 -3 -11 0 -18 7
-9 10 -8 11 6 5 10 -3 15 -9 12 -12z m385 -76 c0 -2 -7 -16 -15 -33 -15 -30
-65 -63 -65 -42 0 6 -4 8 -8 5 -4 -2 -13 4 -20 15 -15 24 -1 25 36 2 27 -17
27 -17 12 2 -8 11 -22 26 -30 33 -8 8 -9 11 -2 7 22 -11 65 4 58 21 -4 12 -2
12 14 4 11 -6 20 -12 20 -14z m260 -42 c0 -27 10 -36 25 -24 9 7 16 -2 25 -33
16 -48 17 -53 19 -67 0 -6 16 -18 35 -26 19 -10 40 -31 50 -50 8 -19 23 -34
31 -34 9 0 13 -4 10 -10 -3 -5 3 -15 15 -22 11 -7 20 -18 20 -24 0 -6 7 -17
15 -24 16 -14 21 -55 5 -45 -6 3 -7 -1 -4 -9 3 -9 10 -13 15 -10 5 3 9 -2 9
-10 0 -9 -7 -16 -15 -16 -8 0 -15 -9 -15 -21 0 -13 4 -18 13 -14 6 4 4 0 -5
-8 -13 -10 -15 -16 -6 -25 9 -9 8 -12 -5 -12 -9 0 -17 -4 -17 -9 0 -5 -8 -7
-19 -4 -15 4 -18 -1 -17 -26 1 -17 4 -31 8 -31 4 0 -3 -20 -15 -45 -21 -43
-37 -58 -37 -34 0 8 -4 8 -13 1 -19 -16 -69 -19 -74 -4 -3 6 2 12 10 12 21 0
30 42 11 53 -8 4 -11 14 -7 20 4 7 -1 6 -10 -2 -15 -12 -17 -12 -11 3 3 9 12
16 19 16 8 0 17 5 20 10 4 6 1 9 -7 8 -7 -2 -13 6 -12 17 0 17 -5 20 -27 17
-17 -3 -29 -12 -33 -25 -5 -19 -6 -19 -30 -3 -23 15 -28 15 -66 0 -24 -10 -40
-23 -40 -33 -1 -14 -2 -14 -11 2 -6 10 -8 25 -5 33 3 8 2 13 -3 10 -10 -6 -44
41 -44 61 0 7 -8 13 -18 13 -9 0 -19 9 -22 20 -4 15 0 20 14 20 27 0 24 15 -7
28 -14 7 -23 8 -19 3 5 -10 -11 -24 -30 -27 -5 0 -15 -2 -22 -2 -13 -2 -5 -42
8 -42 5 0 9 -4 9 -10 0 -5 -7 -10 -15 -10 -8 0 -15 6 -15 14 0 19 -21 26 -43
14 -10 -5 -28 -6 -40 -2 -19 6 -20 5 -8 -10 16 -19 48 -21 54 -3 3 9 7 9 20
-2 17 -13 24 -47 9 -37 -18 11 -67 15 -72 5 -4 -5 -31 -11 -61 -13 -30 -2 -63
-7 -73 -11 -15 -7 -17 -5 -11 6 7 11 6 12 -7 2 -8 -7 -18 -9 -23 -5 -4 4 -2
-4 5 -17 8 -17 9 -26 1 -34 -8 -8 -11 -5 -11 11 0 12 -4 22 -9 22 -5 0 -7 -9
-4 -20 7 -25 -5 -25 -36 0 -19 17 -21 23 -11 35 9 10 9 15 1 15 -6 0 -11 -5
-11 -11 0 -5 -4 -7 -10 -4 -6 3 -10 -4 -10 -18 0 -30 -50 -70 -66 -53 -6 7
-14 25 -18 41 -4 16 -16 41 -27 56 -10 15 -19 33 -19 41 0 8 -5 19 -12 26 -8
8 -8 15 1 26 7 8 10 23 7 33 -3 10 -6 23 -7 28 -1 6 -9 15 -17 21 -13 9 -13
15 -1 40 8 16 23 30 34 32 11 2 25 10 31 18 7 8 16 14 20 13 5 -1 22 3 37 9
16 7 34 12 42 12 19 0 104 73 125 108 11 17 31 39 45 48 23 15 27 15 43 2 9
-8 25 -18 35 -21 9 -4 17 -13 17 -21 0 -10 6 -13 15 -9 9 3 15 2 14 -3 -1 -5
-1 -18 0 -28 1 -19 2 -19 21 2 11 12 20 26 20 33 0 8 5 7 17 -2 9 -8 19 -14
22 -14 3 0 5 -4 3 -8 -1 -5 2 -5 8 -2 6 4 9 14 6 22 -3 8 -1 11 4 8 6 -3 10
-13 10 -21 0 -8 5 -12 10 -9 7 4 9 -2 5 -18 -4 -14 -2 -28 3 -31 6 -3 8 2 6
11 -3 11 3 23 14 30 20 12 62 7 62 -8 0 -5 -7 -6 -15 -3 -8 4 -15 1 -15 -5 0
-6 7 -11 15 -11 8 0 15 -8 16 -17 0 -15 2 -15 9 2 5 11 9 14 9 7 1 -7 6 -10
11 -7 6 3 10 1 10 -5 0 -6 8 -13 18 -17 9 -3 24 -12 33 -20 14 -12 16 -8 14
41 -1 30 2 53 5 51 4 -2 13 7 21 21 9 18 10 27 2 32 -13 8 -16 24 -14 67 l2
30 14 -25 c8 -14 14 -34 15 -46z m-2611 34 c14 -40 23 -83 15 -75 -5 4 -16
-18 -25 -50 -9 -32 -24 -78 -32 -103 -9 -25 -19 -58 -22 -73 -7 -33 -46 -52
-74 -37 -21 11 -33 69 -19 88 6 6 7 12 2 12 -5 0 -2 6 7 13 20 16 31 45 18 52
-11 7 -8 43 5 63 6 10 11 10 22 1 21 -17 64 25 64 62 0 15 7 29 15 33 8 3 12
12 9 21 -3 8 -3 15 0 15 4 0 10 -10 15 -22z m-3069 -93 c10 -12 10 -15 -4 -15
-9 0 -16 7 -16 15 0 8 2 15 4 15 2 0 9 -7 16 -15z m6644 -46 c-3 -5 -10 -7
-15 -3 -5 3 -7 10 -3 15 3 5 10 7 15 3 5 -3 7 -10 3 -15z m-6619 1 c3 -5 1
-10 -4 -10 -6 0 -11 5 -11 10 0 6 2 10 4 10 3 0 8 -4 11 -10z m6292 -112 c3
-7 -8 -2 -25 10 -17 13 -35 28 -39 34 -3 7 8 2 25 -10 17 -13 35 -28 39 -34z
m-6200 10 c-3 -7 -5 -2 -5 12 0 14 2 19 5 13 2 -7 2 -19 0 -25z m401 -19 c-19
-12 -25 -11 -25 5 0 8 8 11 20 8 14 -4 16 -7 5 -13z m2152 -25 c0 -8 -5 -12
-10 -9 -6 4 -8 11 -5 16 9 14 15 11 15 -7z m-2700 -204 c0 -5 -7 -10 -16 -10
-8 0 -12 5 -9 10 3 6 10 10 16 10 5 0 9 -4 9 -10z m172 -5 c0 -5 -5 -11 -10
-13 -5 -1 -9 4 -9 13 0 9 4 14 9 13 5 -2 10 -8 10 -13z m67 -18 c-1 -17 -2
-18 -6 -4 -2 9 -9 15 -14 12 -5 -3 -6 1 -3 9 8 22 24 10 23 -17z m5225 12 c-7
-11 -34 -12 -34 -1 0 14 11 21 26 15 8 -3 11 -9 8 -14z m62 -12 c4 -4 1 -7 -7
-8 -8 0 -24 -2 -36 -3 -16 -2 -20 1 -13 9 10 12 45 13 56 2z m-5307 -54 c16
-32 -13 -46 -62 -31 -41 13 -55 32 -23 34 47 4 66 9 66 18 0 12 4 7 19 -21z
m5301 -3 c0 -5 -2 -10 -4 -10 -3 0 -8 5 -11 10 -3 6 -1 10 4 10 6 0 11 -4 11
-10z m230 6 c0 -2 -7 -6 -15 -10 -8 -3 -15 -1 -15 4 0 6 7 10 15 10 8 0 15 -2
15 -4z m-5649 -50 c13 7 31 -44 23 -68 -5 -15 -12 -18 -35 -13 -18 4 -36 2
-44 -5 -8 -7 -15 -9 -15 -4 0 5 -4 3 -8 -4 -7 -9 -15 -10 -35 -3 -31 12 -36
31 -8 31 11 0 23 5 26 10 3 6 22 8 41 6 24 -3 34 -1 34 9 0 7 6 15 12 17 8 3
4 9 -10 17 -12 6 -22 16 -22 22 0 6 7 3 16 -5 8 -9 20 -14 25 -10z m5646 -59
c6 -6 -48 -23 -69 -23 -18 1 -26 21 -9 21 5 0 13 3 17 7 7 8 52 3 61 -5z m923
-27 c0 -6 -11 -15 -25 -20 -14 -5 -25 -17 -25 -28 0 -20 -18 -42 -34 -42 -6 0
-5 5 2 12 17 17 15 26 -8 33 -18 6 -19 8 -4 22 11 11 18 13 23 5 4 -7 14 -4
31 8 28 22 40 25 40 10z m-120 -97 c5 -4 -35 -43 -63 -60 -7 -4 -18 -21 -25
-36 -13 -31 -32 -28 -32 6 l-1 22 -19 -23 c-11 -13 -24 -21 -30 -17 -5 3 -10
1 -10 -4 0 -6 -5 -11 -12 -11 -21 0 26 42 75 66 26 14 53 36 59 50 9 18 16 23
32 18 12 -4 23 -9 26 -11z m-2890 -213 c12 -8 11 -10 -7 -10 -13 0 -23 5 -23
10 0 13 11 13 30 0z"/>
<path d="M8945 4290 c-3 -5 -1 -10 4 -10 6 0 11 5 11 10 0 6 -2 10 -4 10 -3 0
-8 -4 -11 -10z"/>
<path d="M9010 4296 c0 -2 8 -10 18 -17 15 -13 16 -12 3 4 -13 16 -21 21 -21
13z"/>
<path d="M8685 4120 c-3 -5 1 -10 10 -10 9 0 13 5 10 10 -3 6 -8 10 -10 10 -2
0 -7 -4 -10 -10z"/>
<path d="M8350 4080 c0 -5 5 -10 10 -10 6 0 10 -4 10 -10 0 -5 -7 -10 -15 -10
-8 0 -15 -4 -15 -9 0 -5 9 -7 20 -4 11 3 20 10 20 15 0 5 5 6 10 3 22 -14 8 4
-15 19 -14 9 -25 12 -25 6z"/>
<path d="M8185 4069 c-16 -6 -14 -8 13 -8 33 -1 41 4 20 12 -7 2 -22 1 -33 -4z"/>
<path d="M8090 4060 c-12 -8 -11 -10 7 -10 12 0 25 5 28 10 8 13 -15 13 -35 0z"/>
<path d="M8214 4042 c3 -6 -2 -15 -11 -21 -10 -6 -13 -11 -7 -11 20 0 37 27
23 36 -7 4 -9 3 -5 -4z"/>
<path d="M7930 3820 c0 -5 7 -7 15 -4 8 4 15 8 15 10 0 2 -7 4 -15 4 -8 0 -15
-4 -15 -10z"/>
<path d="M7485 3740 c3 -5 14 -10 23 -10 15 0 15 2 2 10 -20 13 -33 13 -25 0z"/>
<path d="M7619 3720 c13 -11 27 -20 32 -20 18 0 8 10 -23 25 l-33 16 24 -21z"/>
<path d="M7748 3703 c7 -3 16 -2 19 1 4 3 -2 6 -13 5 -11 0 -14 -3 -6 -6z"/>
<path d="M7448 3688 c13 -13 142 -22 142 -9 0 15 -28 21 -93 21 -47 0 -58 -3
-49 -12z"/>
<path d="M7138 3673 c7 -3 16 -2 19 1 4 3 -2 6 -13 5 -11 0 -14 -3 -6 -6z"/>
<path d="M6531 3566 c-7 -9 -8 -17 -2 -20 15 -10 40 5 34 20 -7 18 -17 18 -32
0z"/>
<path d="M6855 3540 c-3 -5 1 -10 9 -10 9 0 16 5 16 10 0 6 -4 10 -9 10 -6 0
-13 -4 -16 -10z"/>
<path d="M8259 3465 c-1 -3 -3 -9 -4 -15 -1 -5 -3 -15 -4 -21 0 -6 -8 -9 -16
-5 -8 3 -15 0 -15 -7 0 -7 12 -13 28 -14 29 -1 55 14 46 28 -3 5 3 6 12 2 12
-4 15 -2 12 8 -3 8 -11 13 -17 12 -6 -2 -11 2 -11 7 0 10 -29 15 -31 5z m21
-35 c0 -5 -5 -10 -11 -10 -5 0 -7 5 -4 10 3 6 8 10 11 10 2 0 4 -4 4 -10z"/>
<path d="M5160 3450 c0 -5 7 -10 15 -10 8 0 15 5 15 10 0 6 -7 10 -15 10 -8 0
-15 -4 -15 -10z"/>
<path d="M8005 3450 c-19 -8 -19 -9 3 -9 12 -1 22 4 22 9 0 6 -1 10 -2 9 -2 0
-12 -4 -23 -9z"/>
<path d="M6190 3440 c0 -5 5 -10 10 -10 6 0 10 5 10 10 0 6 -4 10 -10 10 -5 0
-10 -4 -10 -10z"/>
<path d="M8067 3407 c3 -5 -9 -6 -28 -3 -25 5 -30 4 -18 -3 20 -13 79 -10 79
4 0 6 -9 11 -19 11 -11 0 -17 -4 -14 -9z"/>
<path d="M8143 3394 c-15 -16 -16 -24 -4 -24 8 0 24 30 19 35 -2 2 -9 -3 -15
-11z"/>
<path d="M7890 3369 c-35 -22 -35 -21 -14 -65 17 -35 40 -48 30 -16 -5 15 -1
18 26 18 27 -1 33 3 33 19 0 11 4 26 9 33 19 31 -39 38 -84 11z"/>
<path d="M6590 3375 c0 -11 22 -48 40 -67 15 -17 18 -17 23 -3 4 8 -1 25 -11
36 -18 22 -52 44 -52 34z"/>
<path d="M5748 3328 c-21 -21 -21 -23 -4 -26 18 -4 59 31 49 42 -11 11 -22 7
-45 -16z"/>
<path d="M7985 3340 c4 -6 11 -8 16 -5 14 9 11 15 -7 15 -8 0 -12 -5 -9 -10z"/>
<path d="M8041 3293 c7 -10 15 -20 16 -22 2 -2 3 3 3 11 0 9 -7 19 -16 22 -15
6 -15 4 -3 -11z"/>
<path d="M8070 3301 c0 -8 27 -41 34 -41 8 0 1 36 -8 42 -15 10 -26 10 -26 -1z"/>
<path d="M7637 3277 c4 -6 0 -8 -10 -4 -11 4 -17 -2 -22 -24 -6 -28 -35 -42
-35 -16 0 8 -21 12 -66 14 -78 1 -74 -14 6 -22 30 -3 72 -8 93 -10 21 -2 35 0
32 5 -7 11 24 42 36 35 5 -4 9 0 9 8 0 8 -11 17 -25 19 -15 3 -22 1 -18 -5z"/>
<path d="M7326 3271 c-3 -5 0 -11 8 -14 15 -6 26 1 26 15 0 11 -27 10 -34 -1z"/>
<path d="M4687 3256 c-4 -10 -1 -13 8 -9 8 3 12 9 9 14 -7 12 -11 11 -17 -5z"/>
<path d="M5492 3259 c2 -6 8 -10 13 -10 5 0 11 4 13 10 2 6 -4 11 -13 11 -9 0
-15 -5 -13 -11z"/>
<path d="M7710 3251 c0 -8 -6 -11 -16 -7 -9 3 -25 -5 -41 -22 -14 -15 -28 -26
-32 -25 -4 1 -8 -28 -9 -64 -3 -66 10 -81 21 -23 8 37 22 38 36 3 l11 -28 -3
26 c-3 17 3 30 14 37 18 11 37 97 25 109 -3 4 -6 1 -6 -6z"/>
<path d="M8114 3239 c-3 -5 0 -9 6 -9 6 0 8 -5 4 -11 -4 -8 0 -8 15 0 11 7 21
13 21 15 0 9 -41 13 -46 5z"/>
<path d="M6055 3210 c3 -5 11 -10 16 -10 6 0 7 5 4 10 -3 6 -11 10 -16 10 -6
0 -7 -4 -4 -10z"/>
<path d="M5920 3190 c0 -5 5 -10 11 -10 5 0 7 5 4 10 -3 6 -8 10 -11 10 -2 0
-4 -4 -4 -10z"/>
<path d="M8005 3180 c-3 -6 1 -7 9 -4 18 7 21 14 7 14 -6 0 -13 -4 -16 -10z"/>
<path d="M7937 3169 c7 -7 15 -10 18 -7 3 3 -2 9 -12 12 -14 6 -15 5 -6 -5z"/>
<path d="M7333 3092 c10 -10 17 -24 17 -30 0 -7 5 -12 11 -12 6 0 8 7 5 16 -3
8 -2 13 3 10 5 -3 14 0 20 7 9 11 5 13 -19 12 -17 -1 -30 2 -30 7 0 4 -5 8
-12 8 -6 0 -4 -7 5 -18z"/>
<path d="M7730 3081 c0 -6 4 -13 10 -16 6 -3 7 1 4 9 -7 18 -14 21 -14 7z"/>
<path d="M7770 3054 c0 -8 5 -12 10 -9 6 3 10 10 10 16 0 5 -4 9 -10 9 -5 0
-10 -7 -10 -16z"/>
<path d="M7707 3041 c-2 -10 -1 -25 4 -32 6 -10 9 -4 9 19 0 36 -5 42 -13 13z"/>
<path d="M7834 2985 l0 -34 31 19 c18 11 35 17 38 13 4 -3 7 -3 7 1 0 18 -27
34 -43 24 -11 -6 -17 -5 -17 2 0 5 -3 10 -7 10 -5 0 -8 -16 -9 -35z"/>
<path d="M7815 2990 c3 -5 8 -10 11 -10 2 0 4 5 4 10 0 6 -5 10 -11 10 -5 0
-7 -4 -4 -10z"/>
<path d="M4685 2910 c-6 -10 21 -70 31 -70 4 0 4 10 1 23 -6 21 -6 21 8 3 8
-11 15 -16 15 -10 0 18 -17 35 -31 32 -9 -2 -13 4 -11 15 3 19 -3 23 -13 7z"/>
<path d="M5381 2862 c7 -11 19 -18 26 -15 15 6 18 23 4 23 -5 0 -17 3 -26 6
-15 6 -15 4 -4 -14z"/>
<path d="M6035 2830 c-3 -5 -1 -10 4 -10 6 0 11 5 11 10 0 6 -2 10 -4 10 -3 0
-8 -4 -11 -10z"/>
<path d="M5900 2806 c0 -14 -3 -26 -7 -27 -5 0 -16 -2 -25 -4 -10 -2 -18 0
-18 3 0 14 -63 4 -71 -11 -12 -20 7 -33 26 -17 9 8 15 8 20 0 4 -6 1 -9 -7 -8
-7 2 -14 -4 -14 -12 -3 -33 -5 -34 -21 -15 -12 15 -14 16 -10 3 3 -9 1 -19 -6
-22 -7 -2 -4 -5 6 -5 10 -1 16 -5 13 -10 -6 -10 37 -6 55 5 8 4 9 3 5 -4 -7
-12 4 -16 38 -12 11 1 15 -3 12 -9 -5 -7 4 -11 23 -11 17 0 31 -4 31 -10 0 -5
5 -10 12 -10 6 0 4 8 -6 19 -17 18 -17 20 1 30 13 7 14 10 4 11 -12 0 -12 3
-3 12 8 8 7 19 -6 42 -9 17 -20 33 -25 34 -4 2 -5 8 -1 13 3 5 -2 16 -10 25
-15 14 -16 13 -16 -10z"/>
<path d="M4699 2808 c-10 -6 -6 -7 11 -2 21 6 23 5 13 -8 -10 -12 -10 -15 2
-15 8 0 12 4 9 8 -2 4 3 12 12 17 14 8 13 10 -8 10 -14 0 -32 -5 -39 -10z"/>
<path d="M5466 2801 c-4 -6 -1 -11 6 -11 10 0 9 -3 -2 -10 -8 -5 -11 -12 -7
-17 5 -4 11 -3 15 3 4 6 16 16 27 23 19 12 19 12 1 6 -11 -3 -23 -1 -26 6 -6
8 -9 8 -14 0z"/>
<path d="M4921 2790 c-8 -4 -11 -12 -7 -18 3 -6 -2 -9 -11 -7 -10 1 -17 8 -16
13 2 6 -4 9 -12 5 -10 -3 -12 -9 -6 -17 5 -6 7 -23 5 -38 -2 -24 1 -28 21 -28
22 0 24 2 14 27 -10 26 -9 26 9 10 10 -9 21 -17 25 -17 3 0 18 -11 33 -25 15
-14 28 -24 30 -23 1 2 5 19 8 38 3 19 8 45 10 58 4 17 0 22 -17 23 -12 1 -34
3 -48 4 -14 2 -31 0 -38 -5z"/>
<path d="M5111 2777 c2 -1 13 -9 24 -17 19 -14 19 -14 6 3 -7 9 -18 17 -24 17
-6 0 -8 -1 -6 -3z"/>
<path d="M5354 2744 c-1 -13 2 -21 7 -18 11 6 12 31 2 37 -5 3 -9 -6 -9 -19z"/>
<path d="M5044 2746 c-15 -17 -24 -67 -10 -59 5 4 25 6 43 5 18 -2 33 -1 33 2
0 3 -12 18 -27 35 -21 22 -31 26 -39 17z"/>
<path d="M5166 2692 c-2 -4 4 -9 15 -9 10 -1 19 2 19 8 0 11 -27 12 -34 1z"/>
<path d="M5276 2615 c4 -9 11 -14 16 -13 15 5 11 23 -6 26 -11 2 -14 -2 -10
-13z"/>
<path d="M5996 2611 c-3 -4 1 -17 8 -27 13 -17 14 -17 9 9 -6 29 -9 32 -17 18z"/>
<path d="M6280 2609 c0 -5 5 -7 10 -4 6 3 10 8 10 11 0 2 -4 4 -10 4 -5 0 -10
-5 -10 -11z"/>
<path d="M5636 2592 c-2 -4 0 -15 3 -26 7 -18 8 -18 25 0 17 17 18 16 13 -20
-3 -20 -2 -35 1 -32 3 3 15 -2 26 -11 l21 -18 -20 24 c-17 21 -17 23 -3 18 12
-4 15 -2 11 8 -3 8 -9 12 -14 9 -5 -3 -9 2 -9 11 0 10 5 13 13 9 6 -4 3 2 -8
13 -20 19 -51 28 -59 15z"/>
<path d="M5897 2493 c-2 -5 -7 -20 -11 -35 -6 -24 -3 -28 17 -28 23 0 63 51
50 64 -9 8 -51 8 -56 -1z"/>
<path d="M5816 2350 c6 -44 31 -89 47 -90 5 0 0 16 -12 36 -12 19 -21 43 -21
52 0 9 -5 24 -11 32 -7 11 -8 3 -3 -30z"/>
<path d="M5420 2270 c0 -5 5 -10 11 -10 5 0 7 5 4 10 -3 6 -8 10 -11 10 -2 0
-4 -4 -4 -10z"/>
<path d="M5797 2253 c-4 -3 -7 -11 -7 -17 0 -6 5 -5 12 2 6 6 9 14 7 17 -3 3
-9 2 -12 -2z"/>
<path d="M5946 2195 c8 -71 13 -95 22 -95 5 0 7 19 6 43 -2 23 -3 47 -3 53 -1
5 -8 19 -16 30 -13 17 -14 15 -9 -31z"/>
<path d="M5769 2023 c-13 -17 -13 -17 6 -3 11 8 22 16 24 17 2 2 0 3 -6 3 -6
0 -17 -8 -24 -17z"/>
<path d="M7635 4350 c3 -5 11 -10 16 -10 6 0 7 5 4 10 -3 6 -11 10 -16 10 -6
0 -7 -4 -4 -10z"/>
<path d="M1353 4253 c7 -11 -19 -33 -29 -25 -4 4 -4 1 0 -5 13 -24 44 -15 44
12 0 14 -5 25 -10 25 -5 0 -7 -3 -5 -7z"/>
<path d="M935 4230 c-7 -11 2 -15 50 -24 28 -5 28 -5 8 6 -13 6 -23 15 -23 20
0 11 -27 10 -35 -2z"/>
<path d="M1310 4172 c0 -5 7 -15 15 -22 8 -7 12 -17 8 -23 -3 -6 -1 -7 5 -3 7
4 8 15 3 28 -8 23 -31 37 -31 20z"/>
<path d="M1284 4145 c11 -8 24 -15 30 -15 5 0 1 7 -10 15 -10 8 -23 14 -29 14
-5 0 -1 -6 9 -14z"/>
<path d="M1351 4111 c-7 -5 -12 -13 -10 -18 2 -5 12 -1 22 9 18 19 12 24 -12
9z"/>
<path d="M1532 4070 c7 -11 19 -22 28 -25 8 -4 4 5 -9 19 -29 31 -36 33 -19 6z"/>
<path d="M1440 4046 c0 -8 7 -16 15 -20 13 -4 14 -2 5 14 -13 23 -20 26 -20 6z"/>
<path d="M2040 3959 c-16 -30 -8 -31 13 -3 10 13 13 24 8 24 -6 0 -15 -9 -21
-21z"/>
<path d="M2156 3941 c-15 -6 -16 -9 -5 -13 8 -3 20 1 27 8 14 15 7 17 -22 5z"/>
<path d="M2220 3881 c0 -5 9 -11 21 -14 16 -4 18 -3 8 9 -13 16 -29 19 -29 5z"/>
<path d="M1773 3427 c4 -10 7 -22 7 -26 0 -4 7 -8 15 -8 8 0 15 4 15 9 0 4 8
8 18 8 14 0 15 2 2 10 -10 6 -16 6 -19 -1 -2 -6 -12 -2 -24 8 -20 17 -20 17
-14 0z"/>
<path d="M2170 3280 c0 -5 5 -10 10 -10 6 0 10 5 10 10 0 6 -4 10 -10 10 -5 0
-10 -4 -10 -10z"/>
<path d="M2935 4060 c-3 -5 -1 -10 4 -10 6 0 11 5 11 10 0 6 -2 10 -4 10 -3 0
-8 -4 -11 -10z"/>
<path d="M2935 3902 c2 -15 4 -30 4 -34 1 -5 5 -8 10 -8 14 0 10 58 -5 64 -9
3 -11 -3 -9 -22z"/>
<path d="M2970 3870 c0 -13 10 -22 33 -28 43 -12 45 -7 13 23 -33 30 -46 32
-46 5z"/>
<path d="M2894 3804 c-18 -14 -18 -15 4 -4 12 6 22 13 22 15 0 8 -5 6 -26 -11z"/>
<path d="M5398 3833 c7 -3 16 -2 19 1 4 3 -2 6 -13 5 -11 0 -14 -3 -6 -6z"/>
<path d="M5255 3820 c3 -5 8 -10 11 -10 2 0 4 5 4 10 0 6 -5 10 -11 10 -5 0
-7 -4 -4 -10z"/>
<path d="M2485 3890 c-3 -5 -1 -10 4 -10 6 0 11 5 11 10 0 6 -2 10 -4 10 -3 0
-8 -4 -11 -10z"/>
<path d="M8570 3833 c0 -5 4 -15 10 -23 11 -18 25 -7 17 15 -6 15 -27 21 -27
8z"/>
<path d="M7066 2967 c3 -10 9 -15 12 -12 3 3 0 11 -7 18 -10 9 -11 8 -5 -6z"/>
<path d="M3195 2680 c3 -5 8 -10 11 -10 2 0 4 5 4 10 0 6 -5 10 -11 10 -5 0
-7 -4 -4 -10z"/>
<path d="M3330 2671 c0 -5 7 -12 16 -15 14 -5 15 -4 4 9 -14 17 -20 19 -20 6z"/>
<path d="M2911 2609 c-6 -18 -9 -34 -7 -36 2 -2 9 10 16 27 7 17 10 33 8 36
-3 3 -11 -9 -17 -27z"/>
<path d="M3252 2601 c-11 -7 -11 -9 2 -14 9 -4 13 -13 10 -22 -5 -11 -2 -14
10 -9 10 4 15 13 12 20 -4 9 2 14 16 14 12 0 19 2 16 5 -10 11 -53 14 -66 6z"/>
<path d="M3125 1630 c-3 -5 1 -10 10 -10 9 0 13 5 10 10 -3 6 -8 10 -10 10 -2
0 -7 -4 -10 -10z"/>
<path d="M3106 1607 c3 -10 9 -15 12 -12 3 3 0 11 -7 18 -10 9 -11 8 -5 -6z"/>
<path d="M8166 2568 c5 -7 2 -9 -8 -6 -8 4 -21 3 -28 -2 -9 -6 -6 -10 10 -15
15 -5 25 -2 31 6 12 19 11 29 -2 29 -5 0 -7 -5 -3 -12z"/>
<path d="M8096 2514 c-4 -9 -3 -20 0 -23 4 -3 9 0 11 7 3 6 13 12 24 12 10 0
19 5 19 10 0 17 -47 11 -54 -6z"/>
<path d="M8213 2493 c8 -9 20 -12 26 -9 19 12 12 24 -15 24 -23 0 -24 -2 -11
-15z"/>
<path d="M5446 2535 c4 -8 7 -15 9 -15 2 0 5 7 9 15 3 9 0 15 -9 15 -9 0 -12
-6 -9 -15z"/>
<path d="M8930 2390 c8 -5 20 -10 25 -10 6 0 3 5 -5 10 -8 5 -19 10 -25 10 -5
0 -3 -5 5 -10z"/>
<path d="M3719 2298 c-5 -16 -3 -61 3 -64 9 -6 10 -2 13 39 1 15 -2 27 -6 27
-5 0 -9 -1 -10 -2z"/>
<path d="M3751 2263 c-1 -17 16 -25 25 -12 4 7 3 9 -4 5 -5 -3 -13 0 -15 6 -4
9 -6 10 -6 1z"/>
<path d="M3822 1970 c-18 -29 -15 -38 4 -12 9 13 14 25 12 27 -2 2 -9 -5 -16
-15z"/>
<path d="M3516 1935 c-9 -24 -7 -35 5 -35 6 0 8 7 5 16 -4 10 -2 13 7 7 6 -4
18 -8 26 -10 8 -1 17 -7 21 -13 5 -8 9 -7 13 3 8 20 -18 41 -40 33 -9 -4 -20
-2 -23 4 -5 8 -9 6 -14 -5z"/>
<path d="M3532 1891 c-12 -10 -22 -20 -22 -22 0 -2 18 -5 41 -6 26 -2 38 1 33
8 -3 6 -13 8 -21 5 -11 -4 -13 -1 -8 14 8 25 4 25 -23 1z"/>
<path d="M8951 1891 c-10 -6 -10 -10 -1 -16 8 -5 6 -12 -6 -26 -17 -18 -17
-21 -1 -36 14 -14 17 -15 17 -3 0 12 2 12 9 2 7 -11 9 -11 14 2 4 11 1 16 -11
16 -12 0 -13 3 -5 8 8 5 9 13 3 22 -13 21 -12 33 2 24 7 -4 8 -3 4 4 -8 14 -7
14 -25 3z"/>
<path d="M8913 1862 c-7 -4 -11 -17 -10 -29 0 -12 5 -19 9 -17 5 3 5 10 2 16
-4 6 0 14 7 19 7 4 11 10 8 13 -2 3 -10 2 -16 -2z"/>
<path d="M8832 1830 c0 -14 2 -19 5 -12 2 6 2 18 0 25 -3 6 -5 1 -5 -13z"/>
<path d="M9009 1828 c-4 -14 -7 -50 -3 -41 3 7 13 10 22 7 15 -5 15 -4 0 9
-10 8 -15 17 -11 20 3 4 3 7 0 7 -4 0 -7 -1 -8 -2z"/>
<path d="M8922 1779 c-15 -6 -21 -13 -15 -21 8 -13 13 -33 15 -55 2 -21 30
-24 44 -6 13 17 13 17 14 -2 0 -26 28 -50 59 -52 13 -1 27 -6 30 -11 10 -14
40 -10 34 5 -6 16 -7 15 35 4 25 -8 32 -7 32 5 0 8 -11 15 -27 15 -25 2 -25 2
-5 6 13 3 28 15 34 28 6 14 15 22 21 18 6 -4 7 -1 2 7 -6 10 -11 10 -20 -4
-11 -15 -13 -14 -18 6 -4 12 -9 19 -13 15 -4 -3 -16 -1 -28 5 -27 16 -38 16
-54 5 -9 -7 -11 -6 -7 5 4 9 0 15 -9 15 -8 0 -13 -4 -10 -9 3 -4 -1 -8 -8 -8
-9 0 -9 -3 2 -10 12 -8 10 -10 -8 -10 -19 0 -22 4 -17 23 4 15 3 18 -3 8 -7
-9 -12 -10 -16 -2 -4 6 -4 11 1 11 4 0 1 5 -7 10 -18 12 -28 12 -58 -1z"/>
<path d="M8867 1653 c-4 -3 -7 -11 -7 -17 0 -6 5 -5 12 2 6 6 9 14 7 17 -3 3
-9 2 -12 -2z"/>
<path d="M8900 1629 c0 -5 5 -7 10 -4 6 3 10 8 10 11 0 2 -4 4 -10 4 -5 0 -10
-5 -10 -11z"/>
<path d="M8870 1620 c-13 -8 -12 -10 3 -10 9 0 17 5 17 10 0 12 -1 12 -20 0z"/>
<path d="M3376 1467 c3 -10 9 -15 12 -12 3 3 0 11 -7 18 -10 9 -11 8 -5 -6z"/>
<path d="M3738 4803 c7 -3 16 -2 19 1 4 3 -2 6 -13 5 -11 0 -14 -3 -6 -6z"/>
<path d="M4168 4773 c6 -2 18 -2 25 0 6 3 1 5 -13 5 -14 0 -19 -2 -12 -5z"/>
<path d="M2445 4740 c3 -5 14 -10 23 -10 15 0 15 2 2 10 -20 13 -33 13 -25 0z"/>
<path d="M2598 4743 c7 -3 16 -2 19 1 4 3 -2 6 -13 5 -11 0 -14 -3 -6 -6z"/>
<path d="M3135 4740 c-3 -5 -2 -10 4 -10 5 0 13 5 16 10 3 6 2 10 -4 10 -5 0
-13 -4 -16 -10z"/>
<path d="M2350 4734 c0 -3 7 -12 15 -20 13 -13 15 -13 15 -1 0 8 -7 17 -15 21
-8 3 -15 3 -15 0z"/>
<path d="M2708 4733 c7 -3 16 -2 19 1 4 3 -2 6 -13 5 -11 0 -14 -3 -6 -6z"/>
<path d="M3075 4733 c-36 -9 -36 -19 0 -15 19 2 35 8 35 13 0 9 -3 10 -35 2z"/>
<path d="M2510 4720 c8 -5 20 -10 25 -10 6 0 3 5 -5 10 -8 5 -19 10 -25 10 -5
0 -3 -5 5 -10z"/>
<path d="M2588 4713 c7 -3 16 -2 19 1 4 3 -2 6 -13 5 -11 0 -14 -3 -6 -6z"/>
<path d="M2433 4696 c-10 -11 -9 -15 3 -20 9 -3 17 -6 18 -6 1 0 2 9 2 20 0
23 -6 25 -23 6z"/>
<path d="M2487 4699 c7 -7 15 -10 18 -7 3 3 -2 9 -12 12 -14 6 -15 5 -6 -5z"/>
<path d="M2630 4700 c0 -5 8 -8 18 -8 34 3 71 -12 77 -32 3 -11 10 -20 15 -20
19 0 -17 50 -40 55 -58 12 -70 13 -70 5z"/>
<path d="M2542 4684 c-7 -8 -8 -14 -3 -14 10 0 25 19 20 25 -2 1 -10 -3 -17
-11z"/>
<path d="M2580 4681 c0 -11 -6 -22 -12 -24 -9 -4 -8 -6 2 -6 8 -1 21 8 27 18
10 15 9 20 -2 25 -10 3 -15 -1 -15 -13z"/>
<path d="M8813 4693 c-20 -3 -33 -10 -33 -19 0 -11 21 -14 103 -15 56 -1 137
-2 180 -3 43 -1 83 2 90 6 7 5 3 8 -13 9 -14 0 -34 2 -45 4 -11 2 -49 5 -85 7
-36 2 -68 7 -72 13 -4 5 -16 1 -30 -10 -17 -15 -20 -16 -9 -2 12 15 11 17 -3
17 -9 0 -16 -5 -16 -12 0 -9 -3 -9 -12 0 -7 7 -14 11 -17 10 -4 0 -21 -3 -38
-5z"/>
<path d="M2210 4681 c0 -5 7 -12 16 -15 14 -5 15 -4 4 9 -14 17 -20 19 -20 6z"/>
<path d="M8728 4673 c6 -2 18 -2 25 0 6 3 1 5 -13 5 -14 0 -19 -2 -12 -5z"/>
<path d="M2680 4660 c-13 -8 -13 -10 2 -10 9 0 20 5 23 10 8 13 -5 13 -25 0z"/>
<path d="M2635 4650 c3 -5 11 -10 16 -10 6 0 7 5 4 10 -3 6 -11 10 -16 10 -6
0 -7 -4 -4 -10z"/>
<path d="M3140 4650 c0 -5 5 -10 10 -10 6 0 10 5 10 10 0 6 -4 10 -10 10 -5 0
-10 -4 -10 -10z"/>
<path d="M2380 4643 c8 -3 19 -11 23 -17 6 -7 7 -6 4 4 -2 8 -12 16 -23 17
-13 2 -15 1 -4 -4z"/>
<path d="M2460 4640 c-8 -5 -13 -10 -10 -11 3 0 13 -2 22 -4 9 -2 22 3 29 11
9 11 8 14 -7 14 -11 0 -26 -5 -34 -10z"/>
<path d="M2286 4631 c-8 -12 19 -21 62 -21 l37 1 -40 14 c-47 17 -52 18 -59 6z"/>
<path d="M2535 4630 c-4 -6 -11 -8 -16 -5 -5 4 -9 0 -9 -8 0 -10 8 -13 24 -10
16 3 23 10 19 19 -6 17 -10 17 -18 4z"/>
<path d="M4375 4630 c-3 -5 1 -10 9 -10 9 0 16 5 16 10 0 6 -4 10 -9 10 -6 0
-13 -4 -16 -10z"/>
<path d="M1970 4620 c0 -5 5 -10 11 -10 5 0 7 5 4 10 -3 6 -8 10 -11 10 -2 0
-4 -4 -4 -10z"/>
<path d="M2595 4620 c-3 -5 -1 -10 4 -10 6 0 11 5 11 10 0 6 -2 10 -4 10 -3 0
-8 -4 -11 -10z"/>
<path d="M2445 4600 c3 -5 8 -10 11 -10 2 0 4 5 4 10 0 6 -5 10 -11 10 -5 0
-7 -4 -4 -10z"/>
<path d="M9266 4591 c14 -13 101 -23 108 -13 3 5 -15 12 -41 16 -63 8 -79 8
-67 -3z"/>
<path d="M1878 4573 c6 -2 18 -2 25 0 6 3 1 5 -13 5 -14 0 -19 -2 -12 -5z"/>
<path d="M2258 4543 c6 -2 10 -8 7 -13 -3 -5 4 -11 15 -15 11 -3 20 -11 20
-16 0 -5 5 -9 10 -9 6 0 10 7 10 15 0 9 -9 15 -21 15 -18 0 -19 2 -9 15 11 13
8 15 -16 14 -16 0 -23 -3 -16 -6z"/>
<path d="M1620 4530 c0 -5 5 -10 11 -10 5 0 7 5 4 10 -3 6 -8 10 -11 10 -2 0
-4 -4 -4 -10z"/>
<path d="M2211 4517 c-8 -8 -2 -15 21 -24 39 -17 43 -13 13 13 -17 15 -27 18
-34 11z"/>
<path d="M4305 4520 c3 -5 8 -10 11 -10 2 0 4 5 4 10 0 6 -5 10 -11 10 -5 0
-7 -4 -4 -10z"/>
<path d="M1878 4513 c-24 -6 -23 -19 2 -19 11 0 22 6 24 13 6 13 3 14 -26 6z"/>
<path d="M3085 4450 c3 -5 8 -10 11 -10 2 0 4 5 4 10 0 6 -5 10 -11 10 -5 0
-7 -4 -4 -10z"/>
<path d="M3115 4440 c3 -5 11 -10 16 -10 6 0 7 5 4 10 -3 6 -11 10 -16 10 -6
0 -7 -4 -4 -10z"/>
<path d="M3100 4409 c-12 -9 -10 -10 8 -6 12 3 35 -1 50 -9 29 -14 76 -9 66 8
-3 5 -17 7 -30 4 -14 -4 -24 -2 -24 4 0 13 -51 13 -70 -1z"/>
</g>
</svg>
